<?xml version="1.0" encoding="utf-8"?>
<!-- Generator: Adobe Illustrator 24.1.2, SVG Export Plug-In . SVG Version: 6.00 Build 0)  -->
<svg version="1.1" xmlns="http://www.w3.org/2000/svg" xmlns:xlink="http://www.w3.org/1999/xlink" x="0px" y="0px"
	 viewBox="0 0 512 512" style="enable-background:new 0 0 512 512;" xml:space="preserve">
<style type="text/css">
	.st0{display:none;}
	.st1{display:inline;fill:#05001E;}
	.st2{fill:#29C7AC;}
	.st3{display:none;fill:#969696;}
	.st4{display:none;fill:#827980;}
	.st5{display:none;fill:#F9F8F9;}
	.st6{display:none;fill:#FFFFFF;}
	.st7{display:none;fill:#EFEFEF;}
	.st8{fill:#0F4C75;}
</style>
<g id="BG" class="st0">
	<rect class="st1" width="512" height="512"/>
</g>
<g id="Layer_1">
	<path class="st2" d="M267.2,370.6c21.6,0,39.2,17.5,39.2,39.2s-17.5,39.2-39.2,39.2S228,431.4,228,409.7
		C228,388.1,245.6,370.6,267.2,370.6z"/>
	<path class="st3" d="M283.7,432.4c-21.6,0-39.2-17.5-39.2-39.2c0-6.6,1.6-12.8,4.5-18.2c-12.5,6.6-21,19.6-21,34.7
		c0,21.6,17.5,39.2,39.2,39.2c15.1,0,28.1-8.5,34.7-21C296.4,430.8,290.3,432.4,283.7,432.4z"/>
	<path class="st2" d="M440.4,440.6c17.1,0,30.9,13.8,30.9,30.9s-13.8,30.9-30.9,30.9s-30.9-13.8-30.9-30.9
		c0-11.7,6.5-21.9,16.2-27.2C430,442,435,440.6,440.4,440.6z"/>
	<path class="st3" d="M454.8,488.1c-17.1,0-30.9-13.8-30.9-30.9c0-4.8,1.1-9.4,3.1-13.4c-0.5,0.2-0.9,0.4-1.3,0.7
		c-9.6,5.2-16.2,15.4-16.2,27.2c0,17.1,13.8,30.9,30.9,30.9c12.3,0,22.9-7.1,27.9-17.5C464.2,487,459.6,488.1,454.8,488.1z"/>
	<circle class="st2" cx="458.9" cy="312.8" r="41.2"/>
	<path class="st3" d="M475.9,337.1c-22.8,0-41.2-18.5-41.2-41.2c0-7,1.8-13.6,4.8-19.4c-13,6.9-21.8,20.6-21.8,36.4
		c0,22.8,18.5,41.2,41.2,41.2c15.8,0,29.5-8.8,36.4-21.8C489.5,335.3,482.9,337.1,475.9,337.1z"/>
	<path class="st2" d="M461,7.7c21.6,0,39.2,17.5,39.2,39.2S482.6,86.1,461,86.1s-39.2-17.5-39.2-39.2S439.3,7.7,461,7.7z"/>
	<path class="st3" d="M478.5,68.5c-21.6,0-39.2-17.5-39.2-39.2c0-6.3,1.5-12.2,4.1-17.5c-12.8,6.4-21.7,19.7-21.7,35
		c0,21.6,17.5,39.2,39.2,39.2c15.3,0,28.6-8.8,35-21.7C490.7,67.1,484.8,68.5,478.5,68.5z"/>
	<circle class="st2" cx="96.1" cy="81.9" r="37.1"/>
	<path class="st3" d="M112.6,102.6c-20.5,0-37.1-16.6-37.1-37.1c0-6,1.4-11.6,4-16.7C67.3,54.9,59,67.4,59,81.9
		c0,20.5,16.6,37.1,37.1,37.1c14.5,0,27-8.3,33.2-20.4C124.2,101.1,118.6,102.6,112.6,102.6z"/>
	<path class="st2" d="M261,24.2c13.7,0,24.7,11.1,24.7,24.7S274.7,73.7,261,73.7S236.3,62.6,236.3,49S247.4,24.2,261,24.2z"/>
	<path class="st3" d="M277.5,61.3c-13.7,0-24.7-11.1-24.7-24.7c0-4.3,1.1-8.3,3-11.8c-11.1,2.4-19.5,12.3-19.5,24.2
		c0,13.7,11.1,24.7,24.7,24.7c9.4,0,17.5-5.2,21.7-12.9C281.1,61.1,279.3,61.3,277.5,61.3z"/>
	<circle class="st2" cx="52.8" cy="244.8" r="35"/>
	<path class="st3" d="M69.3,263.4c-19.4,0-35-15.7-35-35c0-5.4,1.2-10.5,3.4-15.1c-11.8,5.6-19.9,17.7-19.9,31.6
		c0,19.4,15.7,35,35,35c13.9,0,26-8.1,31.6-19.9C79.8,262.1,74.7,263.4,69.3,263.4z"/>
	<path class="st2" d="M63.4,401.2c28.5,0,51.5,23.1,51.5,51.5c0,28.5-23.1,51.5-51.5,51.5c-28.5,0-51.5-23.1-51.5-51.5
		C11.9,424.3,34.9,401.2,63.4,401.2z"/>
	<path class="st3" d="M85.8,486c-28.5,0-51.5-23.1-51.5-51.5c0-10.9,3.4-20.9,9.1-29.2c-18.5,7.8-31.5,26.1-31.5,47.5
		c0,28.5,23.1,51.5,51.5,51.5c17.6,0,33.2-8.8,42.5-22.3C99.7,484.6,92.9,486,85.8,486z"/>
	<circle class="st2" cx="256.9" cy="251" r="57.7"/>
	<path class="st4" d="M277.5,296.3c-31.9,0-57.7-25.8-57.7-57.7c0-16.7,7.1-31.7,18.4-42.2c-22.7,7.8-39,29.3-39,54.6
		c0,31.9,25.8,57.7,57.7,57.7c15.2,0,29-5.9,39.3-15.5C290.4,295.2,284.1,296.3,277.5,296.3z"/>
	<path class="st5" d="M285.8,238.6c0-11.4-9.2-20.6-20.6-20.6s-20.6,9.2-20.6,20.6s9.2,20.6,20.6,20.6
		C276.5,259.2,285.8,250,285.8,238.6z"/>
	<circle class="st6" cx="102.3" cy="71.6" r="10.3"/>
	<circle class="st7" cx="59" cy="234.5" r="8.2"/>
	<circle class="st6" cx="265.1" cy="44.8" r="8.2"/>
	<circle class="st7" cx="469.2" cy="34.5" r="10.3"/>
	<circle class="st7" cx="465.1" cy="302.5" r="10.3"/>
	<circle class="st7" cx="277.5" cy="399.4" r="8.2"/>
	<circle class="st6" cx="446.5" cy="465.4" r="8.2"/>
	
		<ellipse transform="matrix(3.327792e-02 -0.9994 0.9994 3.327792e-02 -367.4278 501.4185)" class="st7" cx="75.5" cy="440.6" rx="12.4" ry="12.4"/>
	<g>
		<path class="st8" d="M458.9,263.9c-20.6,0-38.3,12.8-45.5,31l-92-33.1c0.6-3.5,0.9-7.1,0.9-10.7c0-14.2-4.6-27.4-12.3-38.1
			l32.8-32.8c3-3,3-7.9,0-10.9c-3-3-7.9-3-10.9,0l-32.3,32.3c-9.6-8.3-21.5-13.8-34.7-15.4l3.6-105.5c14.3-3.4,25-16.3,25-31.6
			c0-17.9-14.6-32.5-32.5-32.5S228.5,31.1,228.5,49c0,15.2,10.4,27.9,24.5,31.5L249.4,186c-12.4,1.4-23.8,6.3-33.1,13.7l-89.2-85.4
			c8.5-8.2,13.8-19.6,13.8-32.3c0-24.7-20.1-44.8-44.8-44.8S51.3,57.2,51.3,81.9s20.1,44.8,44.8,44.8c6.4,0,12.4-1.3,17.9-3.7
			l91.4,87.6c-8,10.2-13.1,22.8-13.9,36.6c-7.6-0.3-36.5-1.1-43.4-1.3c-4.3-0.2-7.9,3.2-8,7.4c-0.2,4.3,3.2,7.9,7.4,8
			c7,0.3,37,1.1,45,1.4c2.3,12.7,8.3,24.1,16.8,33.1L99.4,405.7c-10-7.7-22.5-12.3-36.1-12.3c-32.7,0-59.3,26.6-59.3,59.3
			S30.7,512,63.4,512s59.3-26.6,59.3-59.3c0-13.6-4.6-26.1-12.3-36.1l110.8-110.8c8.4,5.4,18,9,28.4,10.2l3.3,49
			c-18.9,6.1-32.6,23.8-32.6,44.7c0,25.9,21,46.9,46.9,46.9c25.9,0,46.9-21,46.9-46.9c0-25.5-20.5-46.3-45.8-46.9l-3.1-46.9
			c9.9-1.2,19.1-4.7,27.2-9.9c7.7,8.5,14.8,16.6,22.7,25.6c3,3.4,8.4,3.5,11.4,0.2c2.7-2.9,2.8-7.4,0.2-10.4
			c-7.8-8.9-14.8-16.8-22.4-25.2c5.4-5.7,9.8-12.3,12.9-19.5L410,310c-0.1,0.9-0.1,1.8-0.1,2.8c0,27,22,49,49,49s49-22,49-49
			C507.9,285.8,485.9,263.9,458.9,263.9z M66.7,81.9c0-16.2,13.2-29.4,29.4-29.4s29.4,13.2,29.4,29.4s-13.2,29.4-29.4,29.4
			S66.7,98.1,66.7,81.9z M244,49c0-9.4,7.6-17,17-17c9.4,0,17,7.6,17,17s-7.6,17-17,17C251.6,66,244,58.3,244,49z M63.4,496.5
			c-24.2,0-43.8-19.7-43.8-43.8s19.7-43.8,43.8-43.8s43.8,19.7,43.8,43.8C107.2,476.9,87.5,496.5,63.4,496.5z M298.6,409.7
			c0,17.3-14.1,31.4-31.4,31.4s-31.4-14.1-31.4-31.4s14.1-31.4,31.4-31.4S298.6,392.4,298.6,409.7z M256.9,301
			c-27.6,0-50-22.4-50-50s22.4-50,50-50s50,22.4,50,50C306.9,278.6,284.5,301,256.9,301z M458.9,346.3c-18.5,0-33.5-15-33.5-33.5
			s15-33.5,33.5-33.5s33.5,15,33.5,33.5S477.4,346.3,458.9,346.3z"/>
		<path class="st8" d="M440.4,432.9c-4.4,0-8.7,0.8-12.8,2.2c-4.9-5.4-9.7-10.7-14.6-16.1c-19.6-21.7-42.7-47.4-64.9-73.2
			c-2.8-3.2-7.7-3.6-10.9-0.8c-3.2,2.8-3.6,7.7-0.8,10.9c22.4,26,45.5,51.8,65.2,73.5c4.2,4.6,8.4,9.3,12.6,13.9
			c-7.8,7.2-12.4,17.4-12.4,28.3c0,21.3,17.3,38.7,38.7,38.7s38.7-17.3,38.7-38.7S461.7,432.9,440.4,432.9z M440.4,494.8
			c-12.8,0-23.2-10.4-23.2-23.2c0-8.5,4.6-16.3,12.1-20.4c0,0,0,0,0,0c3.4-1.8,7.2-2.8,11.1-2.8c12.8,0,23.2,10.4,23.2,23.2
			S453.2,494.8,440.4,494.8z"/>
		<path class="st8" d="M52.8,287.6c18.6,0,34.5-12,40.4-28.6l23.1,0.9c0.1,0,0.2,0,0.3,0c4.1,0,7.6-3.3,7.7-7.4
			c0.2-4.3-3.2-7.9-7.4-8l-21.4-0.8C94.9,220.5,76,202,52.8,202C29.2,202,10,221.2,10,244.8S29.2,287.6,52.8,287.6z M52.8,217.5
			c15.1,0,27.3,12.3,27.3,27.3c0,15.1-12.3,27.3-27.3,27.3s-27.3-12.3-27.3-27.3C25.5,229.7,37.7,217.5,52.8,217.5z"/>
		<path class="st8" d="M360.8,158.9c2,0,4-0.8,5.5-2.3l70-70c7.2,4.5,15.7,7.1,24.8,7.1c25.9,0,46.9-21,46.9-46.9S486.8,0,461,0
			s-46.9,21-46.9,46.9c0,11.2,4,21.5,10.5,29.6l-69.3,69.3c-3,3-3,7.9,0,10.9C356.8,158.2,358.8,158.9,360.8,158.9z M461,15.5
			c17.3,0,31.4,14.1,31.4,31.4S478.3,78.3,461,78.3s-31.4-14.1-31.4-31.4S443.6,15.5,461,15.5z"/>
	</g>
	<path class="st0" d="M265.1,210.3c-15.6,0-28.3,12.7-28.3,28.3s12.7,28.3,28.3,28.3s28.3-12.7,28.3-28.3S280.8,210.3,265.1,210.3z
		 M265.1,251.5c-7.1,0-12.9-5.8-12.9-12.9s5.8-12.9,12.9-12.9s12.9,5.8,12.9,12.9S272.2,251.5,265.1,251.5z"/>
</g>
</svg>
