<svg width="500" height="500" viewBox="0 0 500 500" fill="none" xmlns="http://www.w3.org/2000/svg">
<path d="M48.0601 289.78C46.7532 283.271 44.6087 276.958 41.6801 271C33.6801 254.62 27.93 240.29 33.0201 222C45.4901 177.33 96.2101 172.11 121.23 138.42C159.91 86.36 254.95 81.84 300.35 126.83C314.27 140.62 320.79 160.1 334.86 173.74C355.59 193.85 386.37 196.44 407.66 216.49C442.37 249.2 445.74 304.63 414.93 341.41C382.39 380.25 336.46 373.88 291.85 365.62C269.9 361.56 247.08 357.16 224.71 360.28C177 367 120.39 393.21 74.1501 367.12C49.5201 353.22 48.8901 331.54 49.4601 306.25C49.5991 300.725 49.1296 295.202 48.0601 289.78V289.78Z" fill="#0004AA"/>
<path opacity="0.6" d="M48.0601 289.78C46.7532 283.271 44.6087 276.958 41.6801 271C33.6801 254.62 27.93 240.29 33.0201 222C45.4901 177.33 96.2101 172.11 121.23 138.42C159.91 86.36 254.95 81.84 300.35 126.83C314.27 140.62 320.79 160.1 334.86 173.74C355.59 193.85 386.37 196.44 407.66 216.49C442.37 249.2 445.74 304.63 414.93 341.41C382.39 380.25 336.46 373.88 291.85 365.62C269.9 361.56 247.08 357.16 224.71 360.28C177 367 120.39 393.21 74.1501 367.12C49.5201 353.22 48.8901 331.54 49.4601 306.25C49.5991 300.725 49.1296 295.202 48.0601 289.78V289.78Z" fill="#FFFBFB"/>
<path d="M242.5 426C136.737 426 50.9995 407.868 50.9995 385.5C50.9995 363.132 136.737 345 242.5 345C348.262 345 434 363.132 434 385.5C434 407.868 348.262 426 242.5 426Z" fill="#0004AA"/>
<path opacity="0.3" d="M242.5 426C136.737 426 50.9995 407.868 50.9995 385.5C50.9995 363.132 136.737 345 242.5 345C348.262 345 434 363.132 434 385.5C434 407.868 348.262 426 242.5 426Z" fill="#FFFBFB"/>
<path d="M460.95 114.14C461.183 113.296 461.237 112.413 461.106 111.547C460.976 110.682 460.665 109.853 460.193 109.116C459.721 108.378 459.1 107.748 458.369 107.266C457.638 106.785 456.814 106.462 455.95 106.32C450.72 105.61 444.3 112.63 442.26 116.88C442.09 117.25 440 123.31 440.1 123.31C440.2 123.31 449.37 123.52 453.1 121.86C456.37 120.45 460.08 117.76 460.95 114.14ZM326.63 98C327.4 101.64 331.04 104.43 334.22 105.93C337.4 107.43 344.95 107.69 346.8 107.72C347.8 108.91 348.87 110.2 350.02 111.64C352.02 114.2 354.24 117.11 356.44 120.43C357.03 121.32 357.63 122.29 358.23 123.23C356.89 121.86 355.04 120.01 354.84 119.85C351.15 116.92 342.31 113.41 337.92 116.33C337.204 116.834 336.601 117.483 336.152 118.235C335.703 118.987 335.418 119.825 335.314 120.695C335.21 121.564 335.291 122.446 335.55 123.283C335.81 124.119 336.242 124.892 336.82 125.55C339.19 128.43 343.7 129.23 347.22 129.09C350.74 128.95 357.77 125.6 359.27 124.85C360.56 126.94 361.84 129.12 363.04 131.47C365.274 135.706 367.125 140.134 368.57 144.7L368.3 144.83C367.23 143.42 364.9 140.51 364.68 140.3C361.34 136.97 352.93 132.52 348.24 134.93C347.482 135.355 346.82 135.934 346.298 136.629C345.776 137.325 345.404 138.121 345.208 138.968C345.011 139.816 344.993 140.694 345.155 141.549C345.318 142.403 345.657 143.214 346.15 143.93C348.15 147.06 352.58 148.35 356.09 148.59C360.09 148.88 368.5 145.72 368.82 145.59C370.118 150.164 371.12 154.817 371.82 159.52C372.36 163 372.77 166.52 373.15 170.11C372.42 169.11 369.36 165.28 369.15 165.03C365.81 161.71 357.4 157.25 352.72 159.67C351.952 160.093 351.282 160.672 350.753 161.371C350.224 162.07 349.848 162.873 349.65 163.726C349.452 164.58 349.436 165.466 349.603 166.326C349.77 167.187 350.117 168.002 350.62 168.72C352.62 171.84 357.05 173.13 360.56 173.37C364.51 173.65 372.56 170.66 373.22 170.37C373.39 171.99 373.56 173.6 373.72 175.23C374.24 180.52 374.72 185.84 375.38 191.07C375.61 192.88 375.89 194.66 376.17 196.44C375.03 194.96 372.91 192.31 372.7 192.1C369.36 188.78 360.95 184.32 356.26 186.74C355.5 187.164 354.838 187.742 354.315 188.438C353.792 189.133 353.42 189.93 353.223 190.777C353.026 191.625 353.009 192.504 353.172 193.359C353.335 194.213 353.675 195.025 354.17 195.74C356.17 198.86 360.6 200.15 364.11 200.4C367.62 200.65 374.44 198.28 376.35 197.58C376.84 200.58 377.35 203.47 378.07 206.32C378.39 207.55 378.63 208.82 379.01 209.98L380.01 213.47C380.81 215.83 381.54 218.02 382.34 220.2C382.74 221.3 383.13 222.33 383.53 223.4C382.6 221.72 381.08 219.1 380.92 218.87C378.12 215.08 370.49 209.41 365.49 211.09C364.667 211.39 363.916 211.86 363.287 212.47C362.658 213.08 362.164 213.815 361.838 214.629C361.513 215.442 361.362 216.315 361.397 217.191C361.432 218.066 361.651 218.925 362.04 219.71C363.58 223.11 367.73 225.05 371.17 225.82C374.95 226.68 383.07 225.03 384.06 224.82C385.06 227.43 386.06 229.95 387 232.3C390 239.73 392.85 245.81 394.88 250.04L395.21 250.72H380.42L385.53 350.32C385.67 354.002 387.234 357.486 389.892 360.038C392.55 362.59 396.095 364.01 399.78 364V364C403.429 364.002 406.94 362.602 409.586 360.09C412.233 357.578 413.813 354.144 414 350.5L419.11 250.9H403.23C403.31 250.21 403.39 249.48 403.48 248.66C404.01 244.06 404.87 237.48 406.25 229.66C406.64 227.4 407.09 225.01 407.59 222.56C408.59 222.69 416.81 223.73 420.52 222.56C423.88 221.56 427.88 219.28 429.16 215.78C429.488 214.968 429.642 214.096 429.611 213.221C429.58 212.346 429.365 211.487 428.98 210.7C428.595 209.914 428.049 209.217 427.377 208.655C426.705 208.093 425.923 207.679 425.08 207.44C419.97 206.13 412.78 212.37 410.27 216.35C410.11 216.61 408.56 219.84 407.8 221.51C408.1 220.03 408.39 218.56 408.73 217.02C409.21 214.81 409.73 212.49 410.32 210.23C410.64 209.07 410.97 207.9 411.32 206.72C411.67 205.54 412.07 204.42 412.44 203.24C413.02 201.54 413.71 199.81 414.44 198.08C416.66 198.7 423.22 200.39 426.59 199.9C429.96 199.41 434.37 197.78 436.16 194.52C436.609 193.767 436.894 192.927 436.996 192.057C437.099 191.186 437.017 190.303 436.755 189.467C436.494 188.63 436.059 187.857 435.479 187.2C434.9 186.542 434.188 186.014 433.39 185.65C428.54 183.58 420.49 188.65 417.39 192.22C417.29 192.33 416.71 193.15 416.04 194.13C416.76 192.47 417.47 190.8 418.25 189.13C420.47 184.41 422.88 179.66 425.25 174.9C425.75 173.9 426.25 172.9 426.73 171.9C428.6 172.43 435.73 174.33 439.22 173.82C442.71 173.31 447 171.7 448.79 168.43C449.231 167.677 449.51 166.84 449.607 165.973C449.705 165.105 449.619 164.227 449.356 163.395C449.093 162.563 448.659 161.795 448.081 161.142C447.503 160.488 446.794 159.963 446 159.6C441.15 157.54 433.1 162.6 430 166.18C429.89 166.3 429.2 167.28 428.45 168.39C429.71 165.78 430.94 163.17 432.08 160.53C434.049 156.025 435.719 151.395 437.08 146.67C437.73 146.86 446 149.26 449.93 148.67C453.41 148.17 457.7 146.55 459.49 143.29C459.939 142.537 460.225 141.699 460.328 140.828C460.431 139.958 460.35 139.076 460.089 138.239C459.829 137.402 459.395 136.63 458.817 135.972C458.238 135.314 457.527 134.785 456.73 134.42C451.87 132.36 443.82 137.42 440.73 140.99C440.51 141.25 438.07 144.81 437.24 146.12C437.245 146.063 437.245 146.007 437.24 145.95C438.463 141.274 439.266 136.499 439.64 131.68C440.008 127.38 440.128 123.063 440 118.75C439.9 114.75 439.57 111.09 439.25 107.86C439.06 106.11 438.86 104.51 438.65 103.02L438.74 103.08C438.83 103.14 440.59 96.98 440.66 96.58C441.44 91.93 440.2 82.5 435.52 80.07C434.73 79.6894 433.869 79.4791 432.993 79.453C432.117 79.4269 431.244 79.5854 430.433 79.9184C429.622 80.2513 428.89 80.7511 428.285 81.3854C427.68 82.0197 427.215 82.7742 426.92 83.6C425.56 87.07 427.06 91.4 428.92 94.41C430.78 97.42 436.92 101.79 438.42 102.84C438.6 104.39 438.78 106.05 438.94 107.84C439.19 111.07 439.44 114.72 439.45 118.71C439.45 119.78 439.45 120.92 439.4 122.03C439.04 120.15 438.51 117.59 438.4 117.34C436.95 112.86 431.51 105.06 426.23 105.07C425.354 105.095 424.494 105.305 423.704 105.685C422.915 106.065 422.214 106.608 421.648 107.276C421.082 107.945 420.664 108.726 420.419 109.567C420.175 110.409 420.11 111.292 420.23 112.16C420.61 115.87 423.94 119.02 426.95 120.85C429.96 122.68 437.71 123.81 439.37 124C439.29 126.46 439.16 129 438.86 131.6C438.386 136.363 437.489 141.075 436.18 145.68H435.88C435.76 143.91 435.42 140.2 435.36 139.89C434.36 135.28 429.86 126.89 424.61 126.36C423.737 126.289 422.858 126.404 422.032 126.695C421.206 126.986 420.45 127.449 419.815 128.051C419.179 128.654 418.677 129.384 418.342 130.194C418.007 131.003 417.846 131.874 417.87 132.75C417.87 136.47 420.8 139.98 423.59 142.12C426.81 144.59 435.53 146.57 435.86 146.64C434.436 151.181 432.715 155.624 430.71 159.94C429.24 163.14 427.63 166.33 425.98 169.51C425.92 168.26 425.48 163.39 425.41 163.04C424.41 158.43 419.91 150.04 414.66 149.5C413.787 149.431 412.91 149.546 412.084 149.838C411.258 150.13 410.503 150.593 409.868 151.195C409.233 151.797 408.731 152.527 408.395 153.336C408.06 154.144 407.898 155.015 407.92 155.89C407.92 159.62 410.86 163.12 413.65 165.26C416.79 167.67 425.13 169.61 425.84 169.77C425.09 171.21 424.34 172.66 423.58 174.1C421.09 178.81 418.58 183.51 416.22 188.23C415.41 189.87 414.67 191.51 413.92 193.15C413.79 191.28 413.47 187.9 413.42 187.61C412.42 183 407.91 174.61 402.67 174.07C401.797 173.999 400.919 174.114 400.092 174.405C399.266 174.696 398.51 175.159 397.875 175.761C397.239 176.364 396.737 177.094 396.402 177.904C396.067 178.713 395.906 179.584 395.93 180.46C395.93 184.19 398.86 187.69 401.65 189.83C404.44 191.97 411.44 193.76 413.41 194.24C412.18 197 411 199.7 410 202.46C409.59 203.66 409.1 204.85 408.77 206.02L407.71 209.51C407.08 211.92 406.48 214.15 405.94 216.41C405.66 217.55 405.43 218.63 405.17 219.73C405.32 217.83 405.5 214.8 405.49 214.52C405.24 209.82 402.01 200.87 396.91 199.52C396.057 199.318 395.171 199.298 394.31 199.461C393.449 199.624 392.632 199.967 391.912 200.467C391.192 200.967 390.586 201.613 390.133 202.363C389.679 203.113 389.389 203.95 389.28 204.82C389.21 205.276 389.18 205.738 389.19 206.2C387.137 209.796 386.038 213.859 386 218C386 218.3 386.49 221.85 386.78 223.66C386.21 222.26 385.65 220.87 385.09 219.41C384.26 217.3 383.46 215.05 382.66 212.87L381.54 209.4C381.14 208.23 380.9 207.07 380.54 205.88C380.08 204.14 379.7 202.31 379.32 200.5C381.51 199.78 387.92 197.58 390.46 195.31C393 193.04 395.77 189.25 395.46 185.54C395.417 184.665 395.191 183.809 394.796 183.027C394.401 182.246 393.846 181.556 393.167 181.002C392.488 180.449 391.7 180.044 390.855 179.815C390.01 179.585 389.126 179.536 388.26 179.67C383.07 180.67 379.15 189.3 378.55 193.97C378.55 194.12 378.5 195.12 378.48 196.31C378.16 194.53 377.83 192.74 377.57 190.92C376.81 185.76 376.21 180.47 375.57 175.18C375.44 174.07 375.29 172.97 375.16 171.87C377.01 171.28 383.97 168.96 386.63 166.58C389.29 164.2 391.94 160.52 391.63 156.81C391.59 155.934 391.366 155.076 390.972 154.293C390.578 153.51 390.023 152.818 389.343 152.264C388.664 151.71 387.875 151.306 387.028 151.078C386.181 150.85 385.296 150.803 384.43 150.94C379.24 151.94 375.33 160.57 374.72 165.24C374.72 165.4 374.72 166.6 374.65 167.94C374.27 165.06 373.85 162.21 373.34 159.38C372.51 154.514 371.351 149.709 369.87 145C370.53 144.8 378.74 142.24 381.7 139.6C384.33 137.25 387.02 133.54 386.7 129.83C386.66 128.954 386.436 128.096 386.042 127.313C385.648 126.53 385.093 125.838 384.413 125.284C383.734 124.73 382.945 124.326 382.098 124.098C381.251 123.869 380.366 123.823 379.5 123.96C374.32 124.96 370.4 133.59 369.79 138.26C369.79 138.59 369.68 142.91 369.71 144.46C369.71 144.4 369.71 144.34 369.66 144.29C368.098 139.715 366.133 135.288 363.79 131.06C361.71 127.265 359.412 123.592 356.91 120.06C354.62 116.77 352.33 113.91 350.27 111.39C349.15 110.03 348.1 108.81 347.11 107.68H347.22C347.32 107.68 345.39 101.56 345.22 101.19C343.3 96.89 337.07 89.7 331.83 90.26C330.957 90.3789 330.12 90.6813 329.372 91.1472C328.625 91.613 327.984 92.2319 327.493 92.963C327.002 93.6941 326.671 94.521 326.522 95.3891C326.374 96.2573 326.41 97.1471 326.63 98V98ZM387.12 224.6C388.02 224.17 394.93 220.75 397.63 217.82C399.967 219.093 402.378 220.225 404.85 221.21C404.24 223.93 403.66 226.58 403.17 229.07C401.61 236.95 400.6 243.57 399.96 248.22C399.83 249.22 399.71 250.09 399.61 250.9H399.26L398.1 248.65C396.01 244.52 393.1 238.56 389.92 231.26C389 229.16 388.06 226.92 387.12 224.6ZM359.48 123.9C359.4 123.9 357.8 117.75 357.74 117.34C357.09 112.68 358.58 103.28 363.33 100.98C364.13 100.621 364.997 100.435 365.874 100.433C366.751 100.432 367.619 100.614 368.421 100.97C369.222 101.326 369.94 101.846 370.528 102.497C371.115 103.148 371.559 103.916 371.83 104.75C373.1 108.25 371.48 112.54 369.57 115.49C367.33 119 359.49 123.9 359.48 123.9V123.9Z" fill="#0004AA"/>
<path opacity="0.3" d="M460.95 114.14C461.183 113.296 461.237 112.413 461.106 111.547C460.976 110.682 460.665 109.853 460.193 109.116C459.721 108.378 459.1 107.748 458.369 107.266C457.638 106.785 456.814 106.462 455.95 106.32C450.72 105.61 444.3 112.63 442.26 116.88C442.09 117.25 440 123.31 440.1 123.31C440.2 123.31 449.37 123.52 453.1 121.86C456.37 120.45 460.08 117.76 460.95 114.14ZM326.63 98C327.4 101.64 331.04 104.43 334.22 105.93C337.4 107.43 344.95 107.69 346.8 107.72C347.8 108.91 348.87 110.2 350.02 111.64C352.02 114.2 354.24 117.11 356.44 120.43C357.03 121.32 357.63 122.29 358.23 123.23C356.89 121.86 355.04 120.01 354.84 119.85C351.15 116.92 342.31 113.41 337.92 116.33C337.204 116.834 336.601 117.483 336.152 118.235C335.703 118.987 335.418 119.825 335.314 120.695C335.21 121.564 335.291 122.446 335.55 123.283C335.81 124.119 336.242 124.892 336.82 125.55C339.19 128.43 343.7 129.23 347.22 129.09C350.74 128.95 357.77 125.6 359.27 124.85C360.56 126.94 361.84 129.12 363.04 131.47C365.274 135.706 367.125 140.134 368.57 144.7L368.3 144.83C367.23 143.42 364.9 140.51 364.68 140.3C361.34 136.97 352.93 132.52 348.24 134.93C347.482 135.355 346.82 135.934 346.298 136.629C345.776 137.325 345.404 138.121 345.208 138.968C345.011 139.816 344.993 140.694 345.155 141.549C345.318 142.403 345.657 143.214 346.15 143.93C348.15 147.06 352.58 148.35 356.09 148.59C360.09 148.88 368.5 145.72 368.82 145.59C370.118 150.164 371.12 154.817 371.82 159.52C372.36 163 372.77 166.52 373.15 170.11C372.42 169.11 369.36 165.28 369.15 165.03C365.81 161.71 357.4 157.25 352.72 159.67C351.952 160.093 351.282 160.672 350.753 161.371C350.224 162.07 349.848 162.873 349.65 163.726C349.452 164.58 349.436 165.466 349.603 166.326C349.77 167.187 350.117 168.002 350.62 168.72C352.62 171.84 357.05 173.13 360.56 173.37C364.51 173.65 372.56 170.66 373.22 170.37C373.39 171.99 373.56 173.6 373.72 175.23C374.24 180.52 374.72 185.84 375.38 191.07C375.61 192.88 375.89 194.66 376.17 196.44C375.03 194.96 372.91 192.31 372.7 192.1C369.36 188.78 360.95 184.32 356.26 186.74C355.5 187.164 354.838 187.742 354.315 188.438C353.792 189.133 353.42 189.93 353.223 190.777C353.026 191.625 353.009 192.504 353.172 193.359C353.335 194.213 353.675 195.025 354.17 195.74C356.17 198.86 360.6 200.15 364.11 200.4C367.62 200.65 374.44 198.28 376.35 197.58C376.84 200.58 377.35 203.47 378.07 206.32C378.39 207.55 378.63 208.82 379.01 209.98L380.01 213.47C380.81 215.83 381.54 218.02 382.34 220.2C382.74 221.3 383.13 222.33 383.53 223.4C382.6 221.72 381.08 219.1 380.92 218.87C378.12 215.08 370.49 209.41 365.49 211.09C364.667 211.39 363.916 211.86 363.287 212.47C362.658 213.08 362.164 213.815 361.838 214.629C361.513 215.442 361.362 216.315 361.397 217.191C361.432 218.066 361.651 218.925 362.04 219.71C363.58 223.11 367.73 225.05 371.17 225.82C374.95 226.68 383.07 225.03 384.06 224.82C385.06 227.43 386.06 229.95 387 232.3C390 239.73 392.85 245.81 394.88 250.04L395.21 250.72H380.42L385.53 350.32C385.67 354.002 387.234 357.486 389.892 360.038C392.55 362.59 396.095 364.01 399.78 364V364C403.429 364.002 406.94 362.602 409.586 360.09C412.233 357.578 413.813 354.144 414 350.5L419.11 250.9H403.23C403.31 250.21 403.39 249.48 403.48 248.66C404.01 244.06 404.87 237.48 406.25 229.66C406.64 227.4 407.09 225.01 407.59 222.56C408.59 222.69 416.81 223.73 420.52 222.56C423.88 221.56 427.88 219.28 429.16 215.78C429.488 214.968 429.642 214.096 429.611 213.221C429.58 212.346 429.365 211.487 428.98 210.7C428.595 209.914 428.049 209.217 427.377 208.655C426.705 208.093 425.923 207.679 425.08 207.44C419.97 206.13 412.78 212.37 410.27 216.35C410.11 216.61 408.56 219.84 407.8 221.51C408.1 220.03 408.39 218.56 408.73 217.02C409.21 214.81 409.73 212.49 410.32 210.23C410.64 209.07 410.97 207.9 411.32 206.72C411.67 205.54 412.07 204.42 412.44 203.24C413.02 201.54 413.71 199.81 414.44 198.08C416.66 198.7 423.22 200.39 426.59 199.9C429.96 199.41 434.37 197.78 436.16 194.52C436.609 193.767 436.894 192.927 436.996 192.057C437.099 191.186 437.017 190.303 436.755 189.467C436.494 188.63 436.059 187.857 435.479 187.2C434.9 186.542 434.188 186.014 433.39 185.65C428.54 183.58 420.49 188.65 417.39 192.22C417.29 192.33 416.71 193.15 416.04 194.13C416.76 192.47 417.47 190.8 418.25 189.13C420.47 184.41 422.88 179.66 425.25 174.9C425.75 173.9 426.25 172.9 426.73 171.9C428.6 172.43 435.73 174.33 439.22 173.82C442.71 173.31 447 171.7 448.79 168.43C449.231 167.677 449.51 166.84 449.607 165.973C449.705 165.105 449.619 164.227 449.356 163.395C449.093 162.563 448.659 161.795 448.081 161.142C447.503 160.488 446.794 159.963 446 159.6C441.15 157.54 433.1 162.6 430 166.18C429.89 166.3 429.2 167.28 428.45 168.39C429.71 165.78 430.94 163.17 432.08 160.53C434.049 156.025 435.719 151.395 437.08 146.67C437.73 146.86 446 149.26 449.93 148.67C453.41 148.17 457.7 146.55 459.49 143.29C459.939 142.537 460.225 141.699 460.328 140.828C460.431 139.958 460.35 139.076 460.089 138.239C459.829 137.402 459.395 136.63 458.817 135.972C458.238 135.314 457.527 134.785 456.73 134.42C451.87 132.36 443.82 137.42 440.73 140.99C440.51 141.25 438.07 144.81 437.24 146.12C437.245 146.063 437.245 146.007 437.24 145.95C438.463 141.274 439.266 136.499 439.64 131.68C440.008 127.38 440.128 123.063 440 118.75C439.9 114.75 439.57 111.09 439.25 107.86C439.06 106.11 438.86 104.51 438.65 103.02L438.74 103.08C438.83 103.14 440.59 96.98 440.66 96.58C441.44 91.93 440.2 82.5 435.52 80.07C434.73 79.6894 433.869 79.4791 432.993 79.453C432.117 79.4269 431.244 79.5854 430.433 79.9184C429.622 80.2513 428.89 80.7511 428.285 81.3854C427.68 82.0197 427.215 82.7742 426.92 83.6C425.56 87.07 427.06 91.4 428.92 94.41C430.78 97.42 436.92 101.79 438.42 102.84C438.6 104.39 438.78 106.05 438.94 107.84C439.19 111.07 439.44 114.72 439.45 118.71C439.45 119.78 439.45 120.92 439.4 122.03C439.04 120.15 438.51 117.59 438.4 117.34C436.95 112.86 431.51 105.06 426.23 105.07C425.354 105.095 424.494 105.305 423.704 105.685C422.915 106.065 422.214 106.608 421.648 107.276C421.082 107.945 420.664 108.726 420.419 109.567C420.175 110.409 420.11 111.292 420.23 112.16C420.61 115.87 423.94 119.02 426.95 120.85C429.96 122.68 437.71 123.81 439.37 124C439.29 126.46 439.16 129 438.86 131.6C438.386 136.363 437.489 141.075 436.18 145.68H435.88C435.76 143.91 435.42 140.2 435.36 139.89C434.36 135.28 429.86 126.89 424.61 126.36C423.737 126.289 422.858 126.404 422.032 126.695C421.206 126.986 420.45 127.449 419.815 128.051C419.179 128.654 418.677 129.384 418.342 130.194C418.007 131.003 417.846 131.874 417.87 132.75C417.87 136.47 420.8 139.98 423.59 142.12C426.81 144.59 435.53 146.57 435.86 146.64C434.436 151.181 432.715 155.624 430.71 159.94C429.24 163.14 427.63 166.33 425.98 169.51C425.92 168.26 425.48 163.39 425.41 163.04C424.41 158.43 419.91 150.04 414.66 149.5C413.787 149.431 412.91 149.546 412.084 149.838C411.258 150.13 410.503 150.593 409.868 151.195C409.233 151.797 408.731 152.527 408.395 153.336C408.06 154.144 407.898 155.015 407.92 155.89C407.92 159.62 410.86 163.12 413.65 165.26C416.79 167.67 425.13 169.61 425.84 169.77C425.09 171.21 424.34 172.66 423.58 174.1C421.09 178.81 418.58 183.51 416.22 188.23C415.41 189.87 414.67 191.51 413.92 193.15C413.79 191.28 413.47 187.9 413.42 187.61C412.42 183 407.91 174.61 402.67 174.07C401.797 173.999 400.919 174.114 400.092 174.405C399.266 174.696 398.51 175.159 397.875 175.761C397.239 176.364 396.737 177.094 396.402 177.904C396.067 178.713 395.906 179.584 395.93 180.46C395.93 184.19 398.86 187.69 401.65 189.83C404.44 191.97 411.44 193.76 413.41 194.24C412.18 197 411 199.7 410 202.46C409.59 203.66 409.1 204.85 408.77 206.02L407.71 209.51C407.08 211.92 406.48 214.15 405.94 216.41C405.66 217.55 405.43 218.63 405.17 219.73C405.32 217.83 405.5 214.8 405.49 214.52C405.24 209.82 402.01 200.87 396.91 199.52C396.057 199.318 395.171 199.298 394.31 199.461C393.449 199.624 392.632 199.967 391.912 200.467C391.192 200.967 390.586 201.613 390.133 202.363C389.679 203.113 389.389 203.95 389.28 204.82C389.21 205.276 389.18 205.738 389.19 206.2C387.137 209.796 386.038 213.859 386 218C386 218.3 386.49 221.85 386.78 223.66C386.21 222.26 385.65 220.87 385.09 219.41C384.26 217.3 383.46 215.05 382.66 212.87L381.54 209.4C381.14 208.23 380.9 207.07 380.54 205.88C380.08 204.14 379.7 202.31 379.32 200.5C381.51 199.78 387.92 197.58 390.46 195.31C393 193.04 395.77 189.25 395.46 185.54C395.417 184.665 395.191 183.809 394.796 183.027C394.401 182.246 393.846 181.556 393.167 181.002C392.488 180.449 391.7 180.044 390.855 179.815C390.01 179.585 389.126 179.536 388.26 179.67C383.07 180.67 379.15 189.3 378.55 193.97C378.55 194.12 378.5 195.12 378.48 196.31C378.16 194.53 377.83 192.74 377.57 190.92C376.81 185.76 376.21 180.47 375.57 175.18C375.44 174.07 375.29 172.97 375.16 171.87C377.01 171.28 383.97 168.96 386.63 166.58C389.29 164.2 391.94 160.52 391.63 156.81C391.59 155.934 391.366 155.076 390.972 154.293C390.578 153.51 390.023 152.818 389.343 152.264C388.664 151.71 387.875 151.306 387.028 151.078C386.181 150.85 385.296 150.803 384.43 150.94C379.24 151.94 375.33 160.57 374.72 165.24C374.72 165.4 374.72 166.6 374.65 167.94C374.27 165.06 373.85 162.21 373.34 159.38C372.51 154.514 371.351 149.709 369.87 145C370.53 144.8 378.74 142.24 381.7 139.6C384.33 137.25 387.02 133.54 386.7 129.83C386.66 128.954 386.436 128.096 386.042 127.313C385.648 126.53 385.093 125.838 384.413 125.284C383.734 124.73 382.945 124.326 382.098 124.098C381.251 123.869 380.366 123.823 379.5 123.96C374.32 124.96 370.4 133.59 369.79 138.26C369.79 138.59 369.68 142.91 369.71 144.46C369.71 144.4 369.71 144.34 369.66 144.29C368.098 139.715 366.133 135.288 363.79 131.06C361.71 127.265 359.412 123.592 356.91 120.06C354.62 116.77 352.33 113.91 350.27 111.39C349.15 110.03 348.1 108.81 347.11 107.68H347.22C347.32 107.68 345.39 101.56 345.22 101.19C343.3 96.89 337.07 89.7 331.83 90.26C330.957 90.3789 330.12 90.6813 329.372 91.1472C328.625 91.613 327.984 92.2319 327.493 92.963C327.002 93.6941 326.671 94.521 326.522 95.3891C326.374 96.2573 326.41 97.1471 326.63 98V98ZM387.12 224.6C388.02 224.17 394.93 220.75 397.63 217.82C399.967 219.093 402.378 220.225 404.85 221.21C404.24 223.93 403.66 226.58 403.17 229.07C401.61 236.95 400.6 243.57 399.96 248.22C399.83 249.22 399.71 250.09 399.61 250.9H399.26L398.1 248.65C396.01 244.52 393.1 238.56 389.92 231.26C389 229.16 388.06 226.92 387.12 224.6ZM359.48 123.9C359.4 123.9 357.8 117.75 357.74 117.34C357.09 112.68 358.58 103.28 363.33 100.98C364.13 100.621 364.997 100.435 365.874 100.433C366.751 100.432 367.619 100.614 368.421 100.97C369.222 101.326 369.94 101.846 370.528 102.497C371.115 103.148 371.559 103.916 371.83 104.75C373.1 108.25 371.48 112.54 369.57 115.49C367.33 119 359.49 123.9 359.48 123.9V123.9Z" fill="#FFFBFB"/>
<path d="M76.3899 159.26C76.3899 159.26 86.1698 166.74 87.5198 172.5C88.8698 178.26 87.1298 184.39 85.9798 188.04C84.8298 191.69 84.6398 209.34 95.3798 217.2C106.12 225.06 110.92 232.93 109.77 242.72C108.62 252.51 94.0398 263.25 81.9498 265.72C69.8599 268.19 52.7898 262.65 46.0798 248.26C39.3698 233.87 48.3798 218 53.3698 209C58.3598 200 57.9698 191.54 52.3698 191.16C46.7698 190.78 43.9299 192.16 43.7299 184.25C43.5299 176.34 45.4599 164.11 55.6299 157.97C65.7999 151.83 76.3899 159.26 76.3899 159.26Z" fill="#34546A" stroke="#34546A" stroke-linecap="round" stroke-linejoin="round"/>
<path d="M100.47 255.76C99.4702 256.43 90.47 260.1 83.8098 249.76C77.1496 239.42 86.2199 229.89 84.4698 220.76" stroke="#FFFBFB" stroke-width="0.5" stroke-miterlimit="10"/>
<path d="M65.4496 171.16C65.4496 171.16 68.5696 161.08 61.8096 164.35C54.5597 167.85 48.8097 184.35 51.3097 188.1" stroke="#FFFBFB" stroke-width="0.5" stroke-miterlimit="10"/>
<path d="M67.31 169.85C67.31 169.85 71.0601 162.6 68.56 159.35C66.06 156.1 60.31 159.85 57.3099 162.1" stroke="#FFFBFB" stroke-width="0.5" stroke-miterlimit="10"/>
<path d="M58.8097 189.6C58.8097 189.6 57.8096 194.1 60.8097 203.1C63.8098 212.1 69.3099 222.35 63.8098 231.85C58.3096 241.35 54.0596 247.85 60.3097 257.35" stroke="#FFFBFB" stroke-width="0.5" stroke-miterlimit="10"/>
<path d="M58.8098 194.85C58.5923 200.711 59.0114 206.579 60.0598 212.35C61.8098 222.35 56.3098 228.85 50.5598 235.1C44.8098 241.35 46.3098 246.6 48.3098 252.35" stroke="#FFFBFB" stroke-width="0.5" stroke-miterlimit="10"/>
<path d="M67.5599 171.35C67.5599 171.35 79.3099 172.35 82.8099 170.85C86.3099 169.35 85.5599 168.1 85.5599 168.1" stroke="#FFFBFB" stroke-width="0.5" stroke-miterlimit="10"/>
<path d="M65.9997 211.29C65.9997 211.29 64.4697 226.83 62.5097 235.82C60.5497 244.81 57.4297 256.16 58.2097 259.29C58.9897 262.42 76.2096 289.01 76.2096 289.01L81.2896 285.49L70.7296 253.81L79.6196 224.11C79.6196 224.11 71.4796 212.18 65.9997 211.29Z" fill="#FFFBFB" stroke="#34546A" stroke-linecap="round" stroke-linejoin="round"/>
<path d="M67.37 208.76C69.87 205.88 75.24 198.4 75.24 198.4L83.68 188.4L95.38 172.29C96.92 170.18 102.1 170.94 117.06 171.14C132.02 171.34 177.43 162.7 177.43 162.7L178.96 172.7C178.96 172.7 137.4 181.7 126.85 182.7C116.3 183.7 106.51 185 106.51 185C107.951 187.871 109.233 190.818 110.35 193.83C111.5 197.28 124.93 215.7 124.93 215.7C124.93 215.7 125.26 215.9 125.83 216.28C125.98 219.62 125.66 226.71 120.67 230.45C116.81 233.34 111.16 234.56 107.08 235.07C107.01 234.84 106.95 234.64 106.9 234.5C106.32 232.96 102.1 230.66 99.8 230.5C97.5 230.34 90.4 230.69 86.17 230.31C81.94 229.93 79.65 224.17 79.65 224.17C79.65 224.17 70.33 215.07 66.04 211.35C66.306 210.407 66.7582 209.526 67.37 208.76V208.76Z" fill="#FFFBFB" stroke="#34546A" stroke-linecap="round" stroke-linejoin="round"/>
<path d="M101.2 187.32L106.51 184.97L102.65 191.11" stroke="#34546A" stroke-width="0.75" stroke-linecap="round" stroke-linejoin="round"/>
<path d="M114.59 222.26C110.594 224.739 105.865 225.767 101.2 225.17" stroke="#34546A" stroke-width="0.75" stroke-linecap="round" stroke-linejoin="round"/>
<path d="M119 215.27C119 215.27 118.13 218.77 112.59 221.1" stroke="#34546A" stroke-width="0.75" stroke-linecap="round" stroke-linejoin="round"/>
<path d="M70.7603 253.81C70.7603 253.81 67.13 252.25 64.2198 256.33" stroke="#34546A" stroke-width="0.75" stroke-linecap="round" stroke-linejoin="round"/>
<path d="M69.7496 226.63L79.6499 224.11L70.9197 231" stroke="#34546A" stroke-width="0.75" stroke-linecap="round" stroke-linejoin="round"/>
<path d="M96.83 176C96.83 176 101.78 184.73 107.6 184.44C115.51 184.04 137.89 177.44 137.89 175.12C137.89 172.8 131.77 171.92 131.77 171.92" stroke="#34546A" stroke-width="0.75" stroke-linecap="round" stroke-linejoin="round"/>
<path d="M79.6495 183.24C79.6495 183.24 83.6495 182.24 86.5595 184.01C89.4694 185.78 97.1094 202.43 97.1094 202.43C97.1094 202.43 96.5394 203.2 94.2294 203.2C91.9194 203.2 91.3494 206.27 91.3494 209.14C91.3494 212.01 91.5494 213.36 90.5894 213.14C89.6294 212.92 83.8695 210.84 82.7195 211.61C81.5695 212.38 84.2595 216.21 83.7195 216.61C83.1795 217.01 78.3495 212.19 76.8095 207.01C75.2696 201.83 73.7396 194.16 74.1296 191.09C74.5196 188.02 76.9995 184 79.6495 183.24Z" fill="#0004AA" stroke="#34546A" stroke-linecap="round" stroke-linejoin="round"/>
<path d="M76.3894 199.17C78.5023 201.527 80.7423 203.767 83.0994 205.88C87.5194 209.88 91.1594 212.79 90.9694 210.88C90.7794 208.97 86.3694 198.6 85.2194 192.88C84.0694 187.16 81.9494 183.28 79.6494 183.28C77.3494 183.28 72.3594 195 76.3894 199.17Z" fill="#FFFBFB" stroke="#34546A" stroke-linecap="round" stroke-linejoin="round"/>
<path d="M78.6897 174.42C78.5364 174.887 78.286 175.317 77.9552 175.68C77.6243 176.044 77.2203 176.333 76.7697 176.53C75.4297 176.91 65.4497 171.16 65.4497 171.16C65.4497 171.16 58.3497 186.31 59.5097 188.61C60.6697 190.91 64.1097 193.8 67.9497 196.48C71.7897 199.16 78.8797 201.28 81.5697 199.74C84.2597 198.2 82.3397 182.48 82.3397 182.48C82.3397 182.48 84.4497 179.98 82.1497 175.95C79.8497 171.92 78.6897 174.42 78.6897 174.42Z" fill="#FFFBFB" stroke="#34546A" stroke-linecap="round" stroke-linejoin="round"/>
<path d="M62.6199 190.07C62.6199 190.07 62.45 188.88 64.6699 188.88C66.8897 188.88 70.7896 192.96 70.7896 192.96" stroke="#34546A" stroke-width="0.75" stroke-linecap="round" stroke-linejoin="round"/>
<path d="M72.3201 193.3L73.5098 192.11" stroke="#34546A" stroke-width="0.75" stroke-linecap="round" stroke-linejoin="round"/>
<path d="M74.0002 195.52C74.0002 195.52 77.0599 195.01 77.5698 191.09" stroke="#34546A" stroke-width="0.75" stroke-linecap="round" stroke-linejoin="round"/>
<path d="M66.92 183.89C66.92 183.89 67.68 180.16 70.9199 179.44" stroke="#34546A" stroke-width="0.75" stroke-linecap="round" stroke-linejoin="round"/>
<path d="M70.77 185.89C71.55 186.5 72.41 186.7 72.7 186.33C72.99 185.96 72.6 185.17 71.83 184.56C71.06 183.95 70.19 183.75 69.9 184.12C69.61 184.49 70 185.28 70.77 185.89Z" fill="#34546A"/>
<path d="M65.9499 192.19C66.5899 192.69 67.2999 192.86 67.5399 192.55C67.7799 192.24 67.4599 191.55 66.8199 191.08C66.1799 190.61 65.4699 190.42 65.2299 190.72C64.9899 191.02 65.3099 191.68 65.9499 192.19Z" fill="#34546A"/>
<path d="M84.6197 355.47L74.8097 369.1C74.8097 369.1 74.8097 371.6 78.3097 371.6C81.8097 371.6 83.8097 371.6 85.8097 369.1C87.8097 366.6 87.8097 365.1 89.8097 364.1C91.8097 363.1 93.8097 363.1 92.8097 357.6C91.8097 352.1 84.6197 355.47 84.6197 355.47Z" fill="#FFFBFB" stroke="#34546A" stroke-linecap="round" stroke-linejoin="round"/>
<path d="M74.8495 369.41C76.4031 370.156 78.1464 370.414 79.8495 370.15C83.3895 369.51 85.5396 365.97 86.8496 364.45C88.1596 362.93 89.7596 362.94 91.2696 361.67C91.9881 361.056 92.6145 360.342 93.1296 359.55C93.3396 363.11 91.6096 363.23 89.8896 364.1C87.8896 365.1 87.8896 366.6 85.8896 369.1C83.8896 371.6 81.8895 371.6 78.3895 371.6C75.5795 371.6 74.9995 370.08 74.8495 369.41Z" fill="#FFFBFB" stroke="#34546A" stroke-linecap="round" stroke-linejoin="round"/>
<path d="M85.1798 353.74C87.1798 347.74 90.0298 311.82 91.5098 300.45C94.5098 277.33 107.85 247.32 107.85 247.32L107.08 235.04C111.16 234.53 116.81 233.31 120.67 230.42C125.67 226.68 125.98 219.59 125.83 216.25C128.36 217.88 135.83 222.79 142.2 227.95C150.06 234.28 155.44 256.73 156.97 263.82C158.5 270.91 160.23 291.82 160.23 291.82C160.23 291.82 174.05 297.19 179.61 304.82C185.17 312.45 202.06 329.76 202.06 329.76L200.52 335.52C200.52 335.52 195.34 331.88 190.93 328.42C186.52 324.96 152.17 305.78 149.87 304.42C147.57 303.06 144.87 300.42 141.81 292.72C140.69 289.91 139.11 285.31 137.55 280.6L132.22 264L127.09 259.63C122.03 273.31 110.27 299.68 108.6 303.45C106.6 307.97 105.08 328.07 99.5498 340.64C94.0198 353.21 92.5498 359.24 92.5498 359.24C92.5498 359.24 83.1698 359.77 85.1798 353.74Z" fill="#34546A" stroke="#34546A" stroke-linecap="round" stroke-linejoin="round"/>
<path d="M107.41 237.41L105.5 248.56" stroke="#FFFBFB" stroke-width="0.5" stroke-miterlimit="10"/>
<path d="M377.82 151.29L406.7 396.59C406.739 396.943 406.678 397.3 406.525 397.621C406.371 397.941 406.13 398.212 405.83 398.403C405.53 398.594 405.183 398.696 404.828 398.699C404.472 398.702 404.123 398.605 403.82 398.42L385.26 387C384.158 386.317 382.835 386.089 381.568 386.363C380.301 386.637 379.19 387.393 378.47 388.47L355.15 423.14L345.42 277.3L377.82 151.29Z" fill="#0004AA" stroke="#34546A" stroke-linecap="round" stroke-linejoin="round"/>
<path d="M378 157.46L404.1 390.46C404.156 390.963 404.065 391.471 403.836 391.923C403.608 392.375 403.253 392.75 402.814 393.002C402.376 393.255 401.873 393.374 401.368 393.345C400.863 393.317 400.377 393.141 399.97 392.84L386.4 382.84C385.694 382.318 384.889 381.946 384.035 381.746C383.18 381.545 382.294 381.522 381.43 381.676C380.565 381.831 379.742 382.16 379.01 382.644C378.277 383.128 377.651 383.756 377.17 384.49L361.29 408.73C361.118 408.999 360.861 409.203 360.559 409.309C360.258 409.415 359.929 409.417 359.627 409.315C359.324 409.212 359.064 409.011 358.889 408.744C358.714 408.477 358.633 408.158 358.66 407.84L377.2 157.47C377.219 157.379 377.269 157.297 377.341 157.238C377.413 157.179 377.503 157.146 377.596 157.145C377.689 157.144 377.78 157.174 377.853 157.232C377.927 157.289 377.979 157.369 378 157.46V157.46Z" fill="#0004AA" stroke="#34546A" stroke-linecap="round" stroke-linejoin="round"/>
<path opacity="0.6" d="M377.64 154.08L404.12 390.44C404.176 390.943 404.085 391.451 403.856 391.903C403.628 392.355 403.273 392.73 402.834 392.982C402.396 393.235 401.893 393.354 401.388 393.326C400.883 393.297 400.397 393.121 399.99 392.82L386.42 382.82C385.714 382.298 384.909 381.926 384.055 381.726C383.2 381.525 382.314 381.502 381.45 381.656C380.585 381.811 379.762 382.14 379.03 382.624C378.297 383.108 377.671 383.736 377.19 384.47L361.31 408.71C361.138 408.979 360.881 409.183 360.579 409.289C360.278 409.395 359.949 409.397 359.647 409.295C359.344 409.192 359.084 408.991 358.909 408.724C358.734 408.457 358.653 408.138 358.68 407.82L377.45 154.08C377.457 154.06 377.469 154.043 377.486 154.03C377.503 154.018 377.524 154.011 377.545 154.011C377.566 154.011 377.587 154.018 377.604 154.03C377.621 154.043 377.633 154.06 377.64 154.08V154.08Z" fill="#04002D"/>
<path d="M382.47 381.54C381.419 381.558 380.389 381.833 379.469 382.34C378.548 382.847 377.766 383.572 377.19 384.45L361.31 408.69C361.138 408.959 360.88 409.163 360.579 409.269C360.277 409.375 359.949 409.377 359.646 409.275C359.343 409.172 359.084 408.971 358.909 408.704C358.733 408.437 358.653 408.118 358.68 407.8L360.95 377.16L382.81 381.44C382.693 381.463 382.58 381.496 382.47 381.54V381.54Z" fill="#0004AA" stroke="#34546A" stroke-linecap="round" stroke-linejoin="round"/>
<path opacity="0.3" d="M382.47 381.54C381.419 381.558 380.389 381.833 379.469 382.34C378.548 382.847 377.766 383.572 377.19 384.45L361.31 408.69C361.138 408.959 360.88 409.163 360.579 409.269C360.277 409.375 359.949 409.377 359.646 409.275C359.343 409.172 359.084 408.971 358.909 408.704C358.733 408.437 358.653 408.118 358.68 407.8L360.95 377.16L382.81 381.44C382.693 381.463 382.58 381.496 382.47 381.54V381.54Z" fill="#04002D"/>
<path d="M377.23 151.14L355.16 423.14L97.8098 374.1L158.29 161.97L377.23 151.14Z" fill="#34546A" stroke="#34546A" stroke-linecap="round" stroke-linejoin="round"/>
<path d="M365.3 157.01L350.14 408.76L108.14 364.76L159.15 169.17L365.3 157.01Z" fill="#0004AA" stroke="#34546A" stroke-linecap="round" stroke-linejoin="round"/>
<path d="M350.51 280.9L339 400.23L119.12 360.25L139.55 270.56L350.51 280.9Z" fill="#FFFBFB" stroke="#34546A" stroke-linecap="round" stroke-linejoin="round"/>
<path d="M308.07 394.29L311.72 355.96" stroke="#34546A" stroke-linecap="round" stroke-linejoin="round"/>
<path d="M274.42 388.36L277.94 356.41" stroke="#34546A" stroke-linecap="round" stroke-linejoin="round"/>
<path d="M241.43 381.97L245.54 356.41" stroke="#34546A" stroke-linecap="round" stroke-linejoin="round"/>
<path d="M207.44 376.14L212.33 345.67" stroke="#34546A" stroke-linecap="round" stroke-linejoin="round"/>
<path d="M177.5 370.74L181.67 341" stroke="#34546A" stroke-linecap="round" stroke-linejoin="round"/>
<path d="M148.79 365.43L155 329.67" stroke="#34546A" stroke-linecap="round" stroke-linejoin="round"/>
<path d="M81.3199 285.49C81.3199 285.49 84.3799 288.57 84.5799 290.17C84.7799 291.77 83.1799 296.59 83.1799 296.59L78.3599 297.39L76.2399 289.01L81.3199 285.49Z" fill="#FFFBFB" stroke="#34546A" stroke-linecap="round" stroke-linejoin="round"/>
<g style="mix-blend-mode:multiply" opacity="0.49">
<path d="M364.08 226.56C364.08 226.56 359 299.67 354.33 326.33C349.66 352.99 341 392.89 341 392.89C341 392.89 190.999 369.67 116.999 338.33L122.999 309.67L364.08 226.56Z" fill="#0004AA"/>
</g>
<path d="M370.86 154.27L160.19 165.62C160.19 165.62 139.68 227.07 119.27 261.77C98.8599 296.47 65.1999 294.21 65.1999 294.21C65.1999 294.21 142.4 336.42 202.53 358.89C265.11 382.26 319.38 386.46 319.38 386.46C319.38 386.46 368.81 318.94 370.86 154.27Z" fill="#0004AA" stroke="#34546A" stroke-linecap="round" stroke-linejoin="round"/>
<path d="M346.74 143.33C350.65 143.33 353.48 146.8 354.37 152.24L350.37 152.46C349.75 149.32 348.52 147.33 346.75 147.33C344.69 147.33 342.4 150.64 342.4 155.4C342.4 160.16 344.69 163.48 346.75 163.48C347.281 163.48 347.789 163.691 348.164 164.066C348.539 164.441 348.75 164.95 348.75 165.48C348.75 166.01 348.539 166.519 348.164 166.894C347.789 167.269 347.281 167.48 346.75 167.48C342.07 167.48 338.4 162.17 338.4 155.4C338.4 148.63 342.06 143.33 346.74 143.33Z" fill="#FFFBFB" stroke="#34546A" stroke-miterlimit="10"/>
<path d="M341 158.64C341.191 159.345 341.439 160.034 341.74 160.7" stroke="#34546A" stroke-width="0.75" stroke-linecap="round" stroke-linejoin="round"/>
<path d="M352.39 150.44C352.39 150.44 350.89 145.02 346.46 145.32C342.98 145.56 340.11 150.73 340.59 156.26" stroke="#34546A" stroke-width="0.75" stroke-linecap="round" stroke-linejoin="round"/>
<path d="M312 145.08C315.91 145.08 318.74 148.55 319.63 153.99L315.63 154.21C315.01 151.07 313.78 149.08 312.01 149.08C309.95 149.08 307.66 152.39 307.66 157.15C307.66 161.91 309.95 165.23 312.01 165.23C312.54 165.23 313.049 165.441 313.424 165.816C313.799 166.191 314.01 166.7 314.01 167.23C314.01 167.76 313.799 168.269 313.424 168.644C313.049 169.019 312.54 169.23 312.01 169.23C307.33 169.23 303.66 163.92 303.66 157.15C303.66 150.38 307.31 145.08 312 145.08Z" fill="#FFFBFB" stroke="#34546A" stroke-miterlimit="10"/>
<path d="M306.25 160.39C306.441 161.095 306.689 161.784 306.99 162.45" stroke="#34546A" stroke-width="0.75" stroke-linecap="round" stroke-linejoin="round"/>
<path d="M317.64 152.19C317.64 152.19 316.14 146.77 311.71 147.07C308.23 147.31 305.36 152.48 305.84 158.01" stroke="#34546A" stroke-width="0.75" stroke-linecap="round" stroke-linejoin="round"/>
<path d="M277.24 146.83C281.15 146.83 283.98 150.3 284.87 155.74L280.87 155.96C280.25 152.82 279.02 150.83 277.25 150.83C275.19 150.83 272.9 154.14 272.9 158.9C272.9 163.66 275.19 166.98 277.25 166.98C277.781 166.98 278.289 167.191 278.664 167.566C279.039 167.941 279.25 168.45 279.25 168.98C279.25 169.51 279.039 170.019 278.664 170.394C278.289 170.769 277.781 170.98 277.25 170.98C272.57 170.98 268.9 165.67 268.9 158.9C268.9 152.13 272.56 146.83 277.24 146.83Z" fill="#FFFBFB" stroke="#34546A" stroke-miterlimit="10"/>
<path d="M271.5 162.14C271.691 162.845 271.939 163.534 272.24 164.2" stroke="#34546A" stroke-width="0.75" stroke-linecap="round" stroke-linejoin="round"/>
<path d="M282.89 153.94C282.89 153.94 281.39 148.52 276.96 148.82C273.48 149.06 270.61 154.23 271.09 159.76" stroke="#34546A" stroke-width="0.75" stroke-linecap="round" stroke-linejoin="round"/>
<path d="M242.49 148.58C246.4 148.58 249.23 152.05 250.12 157.49L246.12 157.71C245.5 154.57 244.27 152.58 242.5 152.58C240.44 152.58 238.15 155.89 238.15 160.65C238.15 165.41 240.44 168.73 242.5 168.73C243.03 168.73 243.539 168.941 243.914 169.316C244.289 169.691 244.5 170.2 244.5 170.73C244.5 171.26 244.289 171.769 243.914 172.144C243.539 172.519 243.03 172.73 242.5 172.73C237.82 172.73 234.15 167.42 234.15 160.65C234.15 153.88 237.81 148.58 242.49 148.58Z" fill="#FFFBFB" stroke="#34546A" stroke-miterlimit="10"/>
<path d="M236.75 163.89C236.942 164.595 237.189 165.284 237.49 165.95" stroke="#34546A" stroke-width="0.75" stroke-linecap="round" stroke-linejoin="round"/>
<path d="M248.14 155.69C248.14 155.69 246.64 150.27 242.21 150.57C238.73 150.81 235.86 155.98 236.34 161.51" stroke="#34546A" stroke-width="0.75" stroke-linecap="round" stroke-linejoin="round"/>
<path d="M207.11 150.13C211.02 150.13 213.85 153.6 214.73 159.05L210.73 159.27C210.1 156.13 208.87 154.13 207.11 154.13C205.05 154.13 202.75 157.45 202.75 162.21C202.75 166.97 205.05 170.28 207.11 170.28C207.64 170.28 208.149 170.491 208.524 170.866C208.899 171.241 209.11 171.75 209.11 172.28C209.11 172.81 208.899 173.319 208.524 173.694C208.149 174.069 207.64 174.28 207.11 174.28C202.42 174.28 198.75 168.98 198.75 162.21C198.75 155.44 202.42 150.13 207.11 150.13Z" fill="#FFFBFB" stroke="#34546A" stroke-miterlimit="10"/>
<path d="M201.37 165.45C201.56 166.152 201.807 166.838 202.11 167.5" stroke="#34546A" stroke-width="0.75" stroke-linecap="round" stroke-linejoin="round"/>
<path d="M212.76 157.25C212.76 157.25 211.25 151.82 206.83 152.12C203.34 152.36 200.48 157.54 200.95 163.07" stroke="#34546A" stroke-width="0.75" stroke-linecap="round" stroke-linejoin="round"/>
<path d="M173.12 152C177.03 152 179.86 155.47 180.74 160.91L176.74 161.14C176.11 158 174.88 156 173.12 156C171.06 156 168.76 159.32 168.76 164.07C168.76 168.82 171.06 172.15 173.12 172.15C173.65 172.15 174.159 172.361 174.534 172.736C174.909 173.111 175.12 173.62 175.12 174.15C175.12 174.68 174.909 175.189 174.534 175.564C174.159 175.939 173.65 176.15 173.12 176.15C168.43 176.15 164.76 170.84 164.76 164.07C164.76 157.3 168.43 152 173.12 152Z" fill="#FFFBFB" stroke="#34546A" stroke-miterlimit="10"/>
<path d="M167.38 167.26C167.568 167.966 167.816 168.655 168.12 169.32" stroke="#34546A" stroke-width="0.75" stroke-linecap="round" stroke-linejoin="round"/>
<path d="M178.77 159.07C178.77 159.07 177.26 153.64 172.84 153.94C169.35 154.18 166.49 159.35 166.96 164.88" stroke="#34546A" stroke-width="0.75" stroke-linecap="round" stroke-linejoin="round"/>
<path d="M76.2394 289C76.2394 289 74.2394 291.74 74.2394 292.91C74.2394 294.08 76.9795 296.04 76.9795 298.77C76.9795 301.5 80.4996 300.77 80.8896 298.77C81.2796 296.77 80.1095 294.08 80.1095 294.08C80.1095 294.08 81.7396 293.08 82.1096 289.56C82.4796 286.04 79.3095 287.04 79.3095 287.04L76.2394 289Z" fill="#FFFBFB" stroke="#34546A" stroke-linecap="round" stroke-linejoin="round"/>
<path d="M126.24 261.93C140.73 237.29 155.95 198.38 161.36 184.06L349.63 176.43C349.75 315.58 307.63 373.07 307.63 373.07C307.63 373.07 259.68 369.36 204.38 348.7C151.24 328.85 87.8596 295.53 87.8596 295.53C87.8596 295.53 108.21 292.6 126.24 261.93Z" fill="#FFFBFB" stroke="#34546A" stroke-linecap="round" stroke-linejoin="round"/>
<path d="M161.36 184.06L349.63 176.43C349.63 190.12 349.24 203 348.52 215.13L149.7 213.27C154.85 201 159 190.25 161.36 184.06Z" fill="#34546A" stroke="#34546A" stroke-linecap="round" stroke-linejoin="round"/>
<path d="M158.03 225.54L149.13 225.23" stroke="#34546A" stroke-width="3" stroke-linecap="round" stroke-linejoin="round"/>
<path d="M184.19 226.43L164.7 225.76" stroke="#34546A" stroke-width="3" stroke-linecap="round" stroke-linejoin="round"/>
<path d="M215.859 227.5L190.81 226.65" stroke="#34546A" stroke-width="3" stroke-linecap="round" stroke-linejoin="round"/>
<path d="M248.08 228.59L221.39 227.69" stroke="#34546A" stroke-width="3" stroke-linecap="round" stroke-linejoin="round"/>
<path d="M279.23 229.65L254.76 228.82" stroke="#34546A" stroke-width="3" stroke-linecap="round" stroke-linejoin="round"/>
<path d="M312.05 230.77L287.56 229.93" stroke="#34546A" stroke-width="3" stroke-linecap="round" stroke-linejoin="round"/>
<path d="M340.94 231.75L318.15 230.97" stroke="#34546A" stroke-width="3" stroke-linecap="round" stroke-linejoin="round"/>
<path d="M344.65 253.2L137.52 240.58" stroke="#34546A" stroke-linecap="round" stroke-linejoin="round"/>
<path d="M311.92 251.42C311.92 251.42 308.52 306.5 272.21 367.64" stroke="#34546A" stroke-linecap="round" stroke-linejoin="round"/>
<path d="M278.5 249.21C278.5 249.21 274.67 312.21 234.86 358.34" stroke="#34546A" stroke-linecap="round" stroke-linejoin="round"/>
<path d="M248.24 247.35C248.24 247.35 246.24 305.35 201.49 347.03" stroke="#34546A" stroke-linecap="round" stroke-linejoin="round"/>
<path d="M216.87 246C216.87 246 211.93 310.48 168.62 333.19" stroke="#34546A" stroke-linecap="round" stroke-linejoin="round"/>
<path d="M184 243.41C184 243.41 180.52 292.18 136.219 318.89" stroke="#34546A" stroke-linecap="round" stroke-linejoin="round"/>
<path d="M158.12 241.83C158.12 241.83 146.2 291.83 112.85 308.02" stroke="#34546A" stroke-linecap="round" stroke-linejoin="round"/>
<path d="M340.11 281.61L128.55 258.34" stroke="#34546A" stroke-linecap="round" stroke-linejoin="round"/>
<path d="M334.59 306.5C334.59 306.5 289.42 304.73 118.71 273.27" stroke="#34546A" stroke-linecap="round" stroke-linejoin="round"/>
<path d="M326.62 332.85C326.62 332.85 282.62 337.85 110.24 282.96" stroke="#34546A" stroke-linecap="round" stroke-linejoin="round"/>
<path d="M317.1 355.84C317.1 355.84 280.42 367.99 100.24 290.84" stroke="#34546A" stroke-linecap="round" stroke-linejoin="round"/>
<path d="M268.31 203.65L336.13 202.74C336.679 202.732 337.207 202.525 337.615 202.157C338.024 201.789 338.285 201.286 338.35 200.74L338.93 195.26C338.964 194.945 338.931 194.626 338.832 194.324C338.734 194.023 338.572 193.745 338.359 193.511C338.145 193.277 337.884 193.09 337.593 192.964C337.302 192.838 336.987 192.775 336.67 192.78L269.67 193.94C269.175 193.949 268.696 194.12 268.308 194.427C267.919 194.734 267.643 195.16 267.52 195.64L266.16 200.85C266.075 201.179 266.066 201.524 266.134 201.857C266.202 202.191 266.345 202.504 266.552 202.774C266.759 203.044 267.025 203.263 267.33 203.415C267.635 203.567 267.97 203.647 268.31 203.65V203.65Z" fill="#FFFBFB"/>
</svg>
