<?xml version="1.0"?>
<svg xmlns="http://www.w3.org/2000/svg" xmlns:xlink="http://www.w3.org/1999/xlink" xmlns:svgjs="http://svgjs.com/svgjs" version="1.1" width="512" height="512" x="0" y="0" viewBox="0 0 512 512" style="enable-background:new 0 0 512 512" xml:space="preserve" class=""><g><g xmlns="http://www.w3.org/2000/svg"><g><path d="m503.409 35.111h-164.576v27.611h136.964c.602 0 1.091.488 1.091 1.091v411.986c0 .602-.488 1.091-1.091 1.091h-178.38v27.61h205.991c.602 0 1.091-.488 1.091-1.091l.001-467.207c0-.602-.488-1.091-1.091-1.091z" fill="#002887" data-original="#f3f0f3" style="" class=""/></g><g><path d="m311.222 62.722h38.901c1.389 0 2.515-1.126 2.515-2.515v-22.581c0-1.389-1.126-2.515-2.515-2.515h-38.901z" fill="#00a3f3" data-original="#cbc4cc" style="" class=""/></g><g><path d="m162.035 7.5c-1.477 0-2.674 1.197-2.674 2.674v77.485c0 1.477 1.197 2.674 2.674 2.674h80.159l13.806-41.416-13.805-41.417z" fill="#004b7e" data-original="#fe646f" style="" class=""/></g><g><path d="m322.354 7.5h-80.159v82.833h80.159c1.477 0 2.674-1.197 2.674-2.674v-77.485c0-1.477-1.197-2.674-2.674-2.674z" fill="#3c87d0" data-original="#3c87d0" style="" class=""/></g><g><path d="m35.112 475.798v-87.416c0-.289.115-.567.319-.771l39.632-39.632c.426-.426.426-1.116 0-1.542l-27.744-27.744c-.426-.426-.426-1.116 0-1.542l27.744-27.744c.426-.426.426-1.116 0-1.542l-27.744-27.744c-.426-.426-.426-1.116 0-1.542l27.744-27.744c.426-.426.426-1.116 0-1.542l-39.634-39.634c-.205-.205-.319-.482-.319-.771v-125.075c0-.602.488-1.091 1.091-1.091h123.159v-27.611h-150.769c-.602 0-1.091.488-1.091 1.091v164.576h.001l28.515 28.515c.426.426.426 1.116 0 1.542l-27.743 27.744c-.426.426-.426 1.116 0 1.542l27.744 27.744c.426.426.426 1.116 0 1.542l-27.744 27.744c-.426.426-.426 1.116 0 1.542l27.744 27.743c.426.426.426 1.116 0 1.542l-28.196 28.196c-.205.205-.319.482-.319.771v126.464c0 .602.488 1.091 1.091 1.091h205.992v-27.611h-178.382c-.602 0-1.091-.488-1.091-1.091z" fill="#002887" data-original="#f3f0f3" style="" class=""/></g><g><path d="m309.167 476.889h-106.333c-8.76 0-15.861 7.101-15.861 15.861v11.75h138.056v-11.75c-.001-8.76-7.102-15.861-15.862-15.861z" fill="#00a3f3" data-original="#cbc4cc" style="" class=""/></g><g><path d="m297.417 476.889h-82.833v-40.295c0-.62.502-1.122 1.122-1.122h80.59c.62 0 1.122.502 1.122 1.122v40.295z" fill="#0b3450" data-original="#b5adb6" style="" class=""/></g><g><path d="m338.833 325.028c0-46.412-38.171-83.908-84.831-82.81-44.803 1.055-80.969 38.247-80.835 83.063.084 28.155 14.216 53.005 35.754 67.909 6.97 4.823 11.911 12.052 13.966 20.275l3.85 15.399c.971 3.884 4.461 6.609 8.464 6.609h41.598c4.004 0 7.493-2.725 8.464-6.609l3.85-15.398c2.054-8.217 6.986-15.447 13.953-20.266 21.61-14.948 35.767-39.907 35.767-68.172z" fill="#0f4c75" data-original="#fdb441" style="" class=""/></g><g><path d="m271.647 243.671c16.698 15.154 27.184 37.031 27.184 61.356 0 28.265-14.157 53.224-35.768 68.172-6.966 4.819-11.898 12.048-13.953 20.266l-3.85 15.398c-.971 3.884-4.461 6.609-8.464 6.609h-13.409l3.348 13.392c.971 3.884 4.461 6.609 8.464 6.609h41.598c4.004 0 7.493-2.725 8.464-6.609l3.85-15.398c2.054-8.217 6.986-15.447 13.953-20.266 21.61-14.948 35.768-39.906 35.768-68.172.001-40.398-28.918-74.042-67.185-81.357z" fill="#082e48" data-original="#fea713" style="" class=""/></g><g><path d="m256 214.583c-7.625 0-13.806-6.181-13.806-13.806v-27.611c0-7.625 6.181-13.806 13.806-13.806 7.625 0 13.806 6.181 13.806 13.806v27.611c0 7.625-6.181 13.806-13.806 13.806z" fill="#00a3bd" data-original="#fee8c7" style="" class=""/></g><g><path d="m200.777 229.377c-6.603 3.812-15.046 1.55-18.859-5.053l-13.806-23.912c-3.812-6.603-1.55-15.046 5.053-18.859 6.603-3.812 15.046-1.55 18.859 5.053l13.806 23.912c3.813 6.604 1.55 15.047-5.053 18.859z" fill="#00a3bd" data-original="#fee8c7" style="" class=""/></g><g><path d="m160.35 269.801c-3.812 6.603-12.256 8.865-18.859 5.053l-23.912-13.806c-6.603-3.812-8.865-12.256-5.053-18.859 3.812-6.603 12.256-8.865 18.859-5.053l23.912 13.806c6.603 3.812 8.865 12.256 5.053 18.859z" fill="#00a3bd" data-original="#fee8c7" style="" class=""/></g><g><path d="m311.212 229.377c6.603 3.812 15.046 1.55 18.859-5.053l13.806-23.912c3.812-6.603 1.55-15.046-5.053-18.859-6.603-3.812-15.046-1.55-18.859 5.053l-13.806 23.912c-3.812 6.604-1.55 15.047 5.053 18.859z" fill="#00a3bd" data-original="#fee8c7" style="" class=""/></g><g><path d="m351.64 269.801c3.812 6.603 12.256 8.865 18.859 5.053l23.912-13.806c6.603-3.812 8.865-12.256 5.053-18.859-3.812-6.603-12.256-8.865-18.859-5.053l-23.912 13.806c-6.603 3.812-8.866 12.256-5.053 18.859z" fill="#00a3bd" data-original="#fee8c7" style="" class=""/></g><path d="m200.778 70.222c4.142 0 7.5-3.357 7.5-7.5v-27.611c0-4.143-3.358-7.5-7.5-7.5s-7.5 3.357-7.5 7.5v27.611c0 4.143 3.358 7.5 7.5 7.5z" fill="#000000" data-original="#000000" style="" class=""/><path d="m276.111 62.722c0 4.143 3.358 7.5 7.5 7.5s7.5-3.357 7.5-7.5v-6.306h6.306c4.142 0 7.5-3.357 7.5-7.5s-3.358-7.5-7.5-7.5h-6.306v-6.306c0-4.143-3.358-7.5-7.5-7.5s-7.5 3.357-7.5 7.5v6.306h-6.306c-4.142 0-7.5 3.357-7.5 7.5s3.358 7.5 7.5 7.5h6.306z" fill="#000000" data-original="#000000" style="" class=""/><path d="m503.41 27.611h-170.882v-17.437c0-5.61-4.564-10.174-10.174-10.174h-160.319c-5.61 0-10.174 4.563-10.174 10.174v17.437h-81.395c-4.142 0-7.5 3.357-7.5 7.5s3.358 7.5 7.5 7.5h81.395v12.611h-115.659c-4.737 0-8.59 3.854-8.59 8.591v125.075c0 2.291.891 4.446 2.516 6.075l35.102 35.101-23.212 23.211c-3.35 3.35-3.35 8.8 0 12.149l23.211 23.212-23.211 23.211c-3.35 3.35-3.35 8.8 0 12.149l23.211 23.211-35.113 35.113c-1.614 1.622-2.503 3.775-2.503 6.062v87.416c0 4.737 3.854 8.591 8.591 8.591h144.816c-.999 2.597-1.547 5.417-1.547 8.361v4.25h-164.472v-117.4l26.318-26.317c3.35-3.35 3.35-8.8 0-12.148l-23.211-23.213 23.211-23.211c3.357-3.358 3.358-8.791 0-12.149l-23.211-23.212 23.211-23.212c3.357-3.358 3.358-8.791 0-12.149l-26.319-26.318v-155.06h20.465c4.142 0 7.5-3.357 7.5-7.5s-3.358-7.5-7.5-7.5h-26.874c-4.737 0-8.591 3.853-8.591 8.591l.001 164.576c0 1.989.79 3.896 2.197 5.304l23.982 23.982-23.211 23.211c-3.357 3.358-3.358 8.791 0 12.149l23.211 23.211-23.211 23.212c-3.35 3.35-3.35 8.8 0 12.149l23.211 23.211-23.656 23.658c-1.603 1.6-2.522 3.815-2.522 6.081v126.464c0 4.736 3.854 8.59 8.59 8.59h494.816c4.737 0 8.591-3.854 8.591-8.59l.001-467.208c0-4.738-3.854-8.591-8.59-8.591zm-158.271 15v12.611h-12.611v-12.611zm-178.278-27.611h67.833v67.833h-67.833zm-124.249 376.037 37.752-37.751c3.365-3.362 3.358-8.8.003-12.152l-23.211-23.212 23.208-23.208c3.365-3.362 3.358-8.8.003-12.152l-23.211-23.212 23.214-23.214c3.361-3.365 3.349-8.799-.003-12.147l-37.756-37.755v-116.012h109.25v17.438c0 5.61 4.564 10.174 10.174 10.174h105.957c4.142 0 7.5-3.357 7.5-7.5s-3.358-7.5-7.5-7.5h-18.297v-67.834h67.833v67.833h-14.535c-4.142 0-7.5 3.357-7.5 7.5s3.358 7.5 7.5 7.5h19.361c5.61 0 10.174-4.563 10.174-10.174v-17.437h136.86v399.167c-41.691 0-127.237 0-164.471 0v-32.795c0-4.754-3.868-8.622-8.622-8.622h-3.078l3.172-12.688c1.627-6.509 5.514-12.161 10.943-15.917 24.421-16.893 39.001-44.683 39.001-74.34 0-24.531-9.667-47.483-27.218-64.627-17.547-17.139-40.746-26.268-65.29-25.681-23.221.547-45.124 9.987-61.674 26.583-2.925 2.933-2.918 7.682.015 10.606 2.933 2.925 7.682 2.917 10.606-.015 13.81-13.847 32.066-21.724 51.406-22.179 20.482-.487 39.822 7.123 54.456 21.415 14.638 14.298 22.699 33.438 22.699 53.896 0 24.733-12.163 47.912-32.535 62.004-8.427 5.829-14.451 14.57-16.962 24.614l-3.85 15.399c-.136.546-.625.927-1.188.927h-13.298v-41.021c6.516-1.411 12.501-4.658 17.327-9.484 6.632-6.632 10.284-15.448 10.284-24.827s-3.652-18.196-10.284-24.828c-2.929-2.928-7.678-2.928-10.606 0-2.929 2.93-2.929 7.678 0 10.607 3.799 3.798 5.891 8.849 5.891 14.221s-2.092 10.422-5.891 14.221c-3.799 3.798-8.849 5.89-14.221 5.89s-10.422-2.092-14.221-5.891c-3.798-3.798-5.89-8.848-5.89-14.22s2.092-10.423 5.89-14.222c2.929-2.929 2.929-7.678 0-10.606s-7.678-2.929-10.606.001c-6.632 6.632-10.284 15.448-10.284 24.827s3.652 18.195 10.284 24.826c4.826 4.827 10.811 8.075 17.327 9.485v41.021h-13.299c-.563 0-1.052-.382-1.188-.928l-3.85-15.397c-2.51-10.041-8.538-18.786-16.975-24.624-28.493-19.717-39.825-56.262-27.724-88.326 1.463-3.875-.493-8.202-4.368-9.665-3.875-1.462-8.203.494-9.665 4.368-3.858 10.221-5.797 20.954-5.765 31.903.089 29.539 14.663 57.223 38.986 74.054 5.44 3.765 9.332 9.421 10.958 15.928l3.172 12.688h-3.078c-4.754 0-8.622 3.868-8.622 8.622v32.795c-8.515 0-156.49 0-164.471 0v-78.35zm179.471 51.935h67.833v26.417h-67.833zm-27.611 49.778c0-4.61 3.751-8.361 8.361-8.361h106.333c4.61 0 8.361 3.751 8.361 8.361v4.25h-123.055zm302.527 4.25h-164.471v-4.249c0-2.945-.548-5.764-1.547-8.361h144.816c4.737 0 8.59-3.854 8.59-8.591v-411.986c0-4.737-3.854-8.591-8.59-8.591h-115.658v-12.611h136.861z" fill="#000000" data-original="#000000" style="" class=""/><path d="m256 222.083c11.748 0 21.306-9.558 21.306-21.306v-27.611c0-11.748-9.558-21.306-21.306-21.306s-21.306 9.558-21.306 21.306v27.611c0 11.749 9.558 21.306 21.306 21.306zm-6.306-48.916c0-3.477 2.829-6.306 6.306-6.306s6.306 2.829 6.306 6.306v27.611c0 3.477-2.829 6.306-6.306 6.306s-6.306-2.829-6.306-6.306z" fill="#000000" data-original="#000000" style="" class=""/><path d="m175.423 228.075c5.845 10.124 18.881 13.699 29.104 7.798 10.174-5.874 13.672-18.93 7.798-29.104l-13.806-23.912c-5.873-10.173-18.93-13.671-29.104-7.799-10.173 5.874-13.672 18.93-7.798 29.104zm1.493-40.027c3.037-1.751 6.89-.677 8.614 2.309l13.806 23.912c1.738 3.011.703 6.875-2.308 8.613-3.011 1.739-6.876.704-8.614-2.308l-13.805-23.912c-1.739-3.01-.704-6.875 2.307-8.614z" fill="#000000" data-original="#000000" style="" class=""/><path d="m166.846 273.551c5.873-10.175 2.375-23.23-7.799-29.104l-23.913-13.806c-10.174-5.873-23.23-2.375-29.104 7.799s-2.375 23.229 7.798 29.104l23.912 13.806c3.347 1.933 7.004 2.851 10.617 2.851 7.37-.001 14.546-3.823 18.489-10.65-.001 0-.001 0 0 0zm-12.992-7.5c-1.738 3.011-5.603 4.045-8.613 2.308l-23.912-13.806c-3.011-1.738-4.046-5.603-2.308-8.613 1.733-3.001 5.594-4.051 8.614-2.309l23.912 13.806c3.011 1.738 4.046 5.604 2.307 8.614z" fill="#000000" data-original="#000000" style="" class=""/><path d="m307.462 235.873c4.937 2.851 10.679 3.598 16.167 2.129 5.497-1.474 10.091-4.998 12.937-9.927l13.806-23.912c5.874-10.174 2.375-23.23-7.799-29.104-10.174-5.876-23.23-2.375-29.103 7.799l-13.806 23.912c-2.846 4.928-3.602 10.67-2.128 16.167 1.472 5.495 4.998 10.09 9.926 12.936zm5.192-21.604 13.806-23.912c1.735-3.007 5.598-4.048 8.613-2.309 3.011 1.738 4.046 5.603 2.308 8.614l-13.806 23.912c-.842 1.458-2.202 2.502-3.829 2.938-3.363.902-6.82-1.092-7.723-4.459-.435-1.627-.211-3.325.631-4.784z" fill="#000000" data-original="#000000" style="" class=""/><path d="m345.145 273.551c5.845 10.124 18.881 13.699 29.104 7.798l23.912-13.806c4.929-2.846 8.454-7.44 9.927-12.937s.717-11.239-2.128-16.167c-5.874-10.174-18.929-13.671-29.104-7.799l-23.912 13.806c-10.175 5.875-13.673 18.931-7.799 29.105zm15.298-16.114 23.912-13.806c3.012-1.736 6.875-.701 8.614 2.309 1.741 3.016.711 6.871-2.308 8.613l-23.912 13.806c-3.011 1.741-6.875.703-8.614-2.308s-.703-6.876 2.308-8.614z" fill="#000000" data-original="#000000" style="" class=""/></g></g></svg>
