<?xml version="1.0"?>
<svg xmlns="http://www.w3.org/2000/svg" xmlns:xlink="http://www.w3.org/1999/xlink" xmlns:svgjs="http://svgjs.com/svgjs" version="1.1" width="512" height="512" x="0" y="0" viewBox="0 0 512 512" style="enable-background:new 0 0 512 512" xml:space="preserve" class=""><g><path xmlns="http://www.w3.org/2000/svg" d="m114.566 279.261-78.194 135.439h366.494l-80.366-139.206zm219.684 54.93a5 5 0 0 1 6.83 1.83l34.156 59.16a5 5 0 1 1 -8.66 5l-34.156-59.16a5 5 0 0 1 1.83-6.83zm-9.937-17.211a5 5 0 0 1 6.83 1.83l1.491 2.581a5 5 0 1 1 -8.66 5l-1.491-2.581a5 5 0 0 1 1.83-6.83z" fill="#0f4c75" data-original="#000000" style="" class=""/><path xmlns="http://www.w3.org/2000/svg" d="m219.619 97.304-77.911 134.945 136.034-34.273z" fill="#0f4c75" data-original="#000000" style="" class=""/><path xmlns="http://www.w3.org/2000/svg" d="m316.783 265.596-33.843-58.617-148.2 37.339-14.339 24.836z" fill="#0f4c75" data-original="#000000" style="" class=""/><path xmlns="http://www.w3.org/2000/svg" d="m125.422 240.457-77.602-96.148-25.506 14.816 88.591 106.477z" fill="#0f4c75" data-original="#000000" style="" class=""/><path xmlns="http://www.w3.org/2000/svg" d="m489.686 236.44v-25.752l-195.533-4.287 7.386 12.793z" fill="#0f4c75" data-original="#000000" style="" class=""/><path xmlns="http://www.w3.org/2000/svg" d="m489.686 246.482-182.025-16.685 8.06 13.96 173.965 50.216z" fill="#0f4c75" data-original="#000000" style="" class=""/><path xmlns="http://www.w3.org/2000/svg" d="m489.686 304.381-166.755-48.135 6.075 10.521 160.68 91.48z" fill="#0f4c75" data-original="#000000" style="" class=""/></g></svg>
