<?xml version="1.0"?>
<svg xmlns="http://www.w3.org/2000/svg" xmlns:xlink="http://www.w3.org/1999/xlink" xmlns:svgjs="http://svgjs.com/svgjs" version="1.1" width="512" height="512" x="0" y="0" viewBox="0 0 512 512" style="enable-background:new 0 0 512 512" xml:space="preserve" class=""><g>
<g xmlns="http://www.w3.org/2000/svg">
	<path d="M316.692,195.302c4.257,4.257,10.783,5.625,16.511,3.17l148.493-63.64c4.568-1.957,7.872-6.07,8.815-10.948   c0.932-4.889-0.601-9.922-4.122-13.444l-31.82-31.82l53.033-53.033c5.085-5.087,5.852-13.063,1.822-19.017   c-4.017-5.823-11.713-8.214-18.344-5.376L342.589,64.832c-4.568,1.959-7.874,6.07-8.815,10.95   c-0.934,4.889,0.601,9.922,4.122,13.444l31.82,31.82l-53.033,53.033C310.888,179.874,310.745,189.355,316.692,195.302z" fill="#0f4c75" data-original="#000000" style=""/>
	<path d="M205.513,30.715l-53.033,53.033l84.853,84.853l53.033-53.033c5.861-5.863,5.861-15.35,0-21.213l-63.64-63.64   C220.863,24.852,211.375,24.852,205.513,30.715z" fill="#0f4c75" data-original="#000000" style=""/>
	<path d="M481.285,306.486c5.863-5.863,5.863-15.35,0-21.213l-63.64-63.64c-5.863-5.863-15.35-5.863-21.213,0l-53.033,53.033   l84.853,84.853L481.285,306.486z" fill="#0f4c75" data-original="#000000" style=""/>
	<path d="M332.792,454.979l74.246-74.247l-84.853-84.853l-74.246,74.247c-29.24,29.24-76.826,29.24-106.066,0   s-29.24-76.826,0-106.066l74.246-74.247l-84.853-84.853L57.02,179.208c-76.027,76.027-76.027,199.742,0,275.771   C133.048,531.006,256.765,531.006,332.792,454.979z" fill="#0f4c75" data-original="#000000" style=""/>
</g>















</g></svg>
