<?xml version="1.0"?>
<svg xmlns="http://www.w3.org/2000/svg" xmlns:xlink="http://www.w3.org/1999/xlink" xmlns:svgjs="http://svgjs.com/svgjs" version="1.1" width="512" height="512" x="0" y="0" viewBox="0 0 511 511.999" style="enable-background:new 0 0 512 512" xml:space="preserve"><g><path xmlns="http://www.w3.org/2000/svg" d="m190.777344 173.695312c-25.359375 0-45.992188 20.570313-45.992188 45.855469 0 25.285157 20.632813 45.855469 45.992188 45.855469s45.992187-20.570312 45.992187-45.855469c0-25.285156-20.632812-45.855469-45.992187-45.855469zm0 61.710938c-8.820313 0-15.992188-7.113281-15.992188-15.855469 0-8.742187 7.171875-15.855469 15.992188-15.855469 8.816406 0 15.992187 7.113282 15.992187 15.855469 0 8.742188-7.171875 15.855469-15.992187 15.855469zm0 0" fill="#0f4c75" data-original="#000000" style=""/><path xmlns="http://www.w3.org/2000/svg" d="m354.882812 408.996094-9.652343-47.660156c-2.890625-14.261719-15.574219-24.609376-30.160157-24.609376h-11.8125v-117.175781c0-56.683593-42.523437-103.664062-97.480468-110.988281v-18.628906h76.765625c29.097656 0 52.773437-23.671875 52.773437-52.828125-.003906-20.460938-16.648437-37.105469-37.109375-37.105469h-218.152343c-20.460938 0-37.105469 16.644531-37.105469 37.160156 0 29.101563 23.671875 52.773438 52.769531 52.773438h80.058594v18.628906c-54.957032 7.324219-97.480469 54.304688-97.480469 110.988281v144.746094h-24.933594c-18.242187 0-34.105469 12.941406-37.71875 30.769531l-14.375 70.980469c-2.289062 11.296875.585938 22.898437 7.890625 31.828125 7.339844 8.976562 18.210938 14.125 29.828125 14.125h108.621094c11.613281 0 22.484375-5.148438 29.824219-14.125 7.304687-8.929688 10.183594-20.53125 7.894531-31.828125l-14.378906-70.980469c-3.609375-17.828125-19.472657-30.769531-37.71875-30.769531h-24.933594v-68.6875c20.558594 22.082031 49.925781 35.921875 82.480469 35.921875 32.554687 0 61.921875-13.839844 82.480468-35.921875v41.113281h-11.816406c-14.585937 0-27.265625 10.351563-30.15625 24.609375l-9.652344 47.660157c-1.832031 9.042968.46875 18.324218 6.3125 25.472656 5.871094 7.175781 14.5625 11.292968 23.84375 11.292968h72.9375c9.28125 0 17.972657-4.117187 23.839844-11.292968 5.84375-7.148438 8.148438-16.429688 6.316406-25.46875zm-281.933593-371.890625c0-3.917969 3.1875-7.105469 7.105469-7.105469h218.152343c3.917969 0 7.105469 3.1875 7.105469 7.160156 0 12.558594-10.214844 22.773438-22.769531 22.773438h-186.824219c-12.558594 0-22.769531-10.214844-22.769531-22.828125zm68.597656 363.914062 14.378906 70.984375c.675781 3.335938-.785156 5.742188-1.714843 6.882813-.949219 1.160156-3.074219 3.113281-6.601563 3.113281h-108.625c-3.527344 0-5.652344-1.953125-6.601563-3.113281-.929687-1.140625-2.390624-3.546875-1.714843-6.882813l14.378906-70.984375c.789063-3.894531 4.285156-6.722656 8.316406-6.722656h79.867188c4.03125.003906 7.527343 2.828125 8.316406 6.722656zm49.230469-99.488281c-45.480469 0-82.480469-36.777344-82.480469-81.980469s37-81.980469 82.480469-81.980469c45.480468 0 82.480468 36.777344 82.480468 81.980469s-37 81.980469-82.480468 81.980469zm134.566406 113.941406c-.230469.285156-.492188.285156-.617188.285156h-72.9375c-.125 0-.386718 0-.617187-.28125-.195313-.238281-.160156-.410156-.136719-.527343l9.65625-47.660157c.066406-.324218.382813-.5625.753906-.5625h53.625c.371094 0 .691407.238282.753907.5625l9.65625 47.660157c.023437.113281.058593.289062-.136719.523437zm0 0" fill="#0f4c75" data-original="#000000" style=""/></g></svg>
