<svg width="1440" height="906" viewBox="0 0 1440 906" fill="none" xmlns="http://www.w3.org/2000/svg">
   <g clip-path="url(#clip0)">
      <rect width="1440" height="905.02" fill="white"/>
      <g clip-path="url(#clip1)">
         <path d="M1373.17 905.022H156.071C145.248 905.022 134.867 900.723 127.214 893.069C119.561 885.416 115.261 875.036 115.261 864.212C556.459 812.937 989.366 812.937 1413.98 864.212C1413.98 875.036 1409.68 885.416 1402.03 893.069C1394.37 900.723 1383.99 905.022 1373.17 905.022Z" fill="#CCCCCC"/>
         <path d="M1413.98 866.613L115.261 864.212L265.778 610.95L266.498 609.75V51.5887C266.498 44.8138 267.832 38.1051 270.424 31.8459C273.016 25.5866 276.816 19.8993 281.607 15.1087C286.397 10.3182 292.085 6.51818 298.344 3.92581C304.603 1.33344 311.312 -0.00056594 318.087 1.8011e-07H1203.95C1210.73 -0.00056594 1217.44 1.33344 1223.7 3.92581C1229.95 6.51818 1235.64 10.3182 1240.43 15.1087C1245.22 19.8993 1249.02 25.5866 1251.62 31.8459C1254.21 38.1051 1255.54 44.8138 1255.54 51.5887V613.591L1413.98 866.613Z" fill="#E6E6E6"/>
         <path d="M316.911 36.0089C312.455 36.0138 308.184 37.7859 305.034 40.9362C301.883 44.0865 300.111 48.3578 300.106 52.813V561.738C300.112 566.193 301.884 570.464 305.034 573.615C308.184 576.765 312.455 578.537 316.911 578.542H1212.33C1216.79 578.537 1221.06 576.765 1224.21 573.614C1227.36 570.464 1229.13 566.193 1229.13 561.738V52.813C1229.13 48.3578 1227.36 44.0867 1224.21 40.9364C1221.06 37.7861 1216.79 36.014 1212.33 36.0089H316.911Z" fill="white"/>
         <path d="M322.795 645.759C321.419 645.761 320.071 646.157 318.912 646.9C317.753 647.642 316.83 648.701 316.252 649.95L269.873 750.775C269.368 751.872 269.148 753.079 269.231 754.284C269.315 755.489 269.7 756.653 270.351 757.67C271.003 758.687 271.9 759.524 272.959 760.104C274.019 760.683 275.207 760.987 276.415 760.987H1251.74C1252.97 760.987 1254.18 760.673 1255.25 760.075C1256.32 759.477 1257.22 758.615 1257.87 757.571C1258.51 756.527 1258.88 755.335 1258.93 754.108C1258.99 752.882 1258.73 751.662 1258.18 750.564L1207.77 649.739C1207.17 648.541 1206.25 647.533 1205.12 646.829C1203.98 646.126 1202.67 645.755 1201.33 645.759L322.795 645.759Z" fill="#CCCCCC"/>
         <path d="M761.02 27.6068C766.986 27.6068 771.822 22.7703 771.822 16.8041C771.822 10.838 766.986 6.00146 761.02 6.00146C755.054 6.00146 750.217 10.838 750.217 16.8041C750.217 22.7703 755.054 27.6068 761.02 27.6068Z" fill="white"/>
         <path d="M665.153 780.192C663.57 780.194 662.031 780.716 660.775 781.679C659.518 782.642 658.613 783.992 658.2 785.52L646.566 828.731C646.279 829.798 646.24 830.918 646.455 832.002C646.669 833.086 647.131 834.107 647.803 834.984C648.475 835.862 649.341 836.573 650.332 837.062C651.323 837.551 652.414 837.806 653.519 837.806H874.766C875.914 837.806 877.046 837.531 878.066 837.005C879.087 836.479 879.967 835.716 880.632 834.781C881.298 833.846 881.731 832.765 881.894 831.628C882.057 830.492 881.946 829.333 881.57 828.248L866.613 785.037C866.122 783.623 865.204 782.396 863.984 781.528C862.764 780.659 861.304 780.192 859.807 780.192H665.153Z" fill="#CCCCCC"/>
         <path d="M1255.54 601.347V610.951H265.778L266.522 609.75V601.347H1255.54Z" fill="#CCCCCC"/>
         <path d="M1133.37 623.344C1132.99 623.345 1132.61 623.472 1132.31 623.706C1132 623.941 1131.78 624.27 1131.68 624.642L1128.85 635.164C1128.78 635.424 1128.77 635.697 1128.82 635.961C1128.87 636.225 1128.99 636.473 1129.15 636.687C1129.31 636.901 1129.52 637.074 1129.77 637.193C1130.01 637.312 1130.27 637.374 1130.54 637.374H1184.42C1184.7 637.374 1184.97 637.307 1185.22 637.179C1185.47 637.051 1185.68 636.865 1185.85 636.637C1186.01 636.41 1186.11 636.146 1186.15 635.87C1186.19 635.593 1186.17 635.311 1186.07 635.047L1182.43 624.524C1182.31 624.18 1182.09 623.881 1181.79 623.669C1181.5 623.458 1181.14 623.344 1180.78 623.344H1133.37Z" fill="#CCCCCC"/>
         <path d="M1054.71 623.344C1054.32 623.345 1053.95 623.472 1053.64 623.706C1053.33 623.941 1053.11 624.27 1053.01 624.642L1050.18 635.164C1050.11 635.424 1050.1 635.697 1050.15 635.961C1050.21 636.225 1050.32 636.473 1050.48 636.687C1050.65 636.901 1050.86 637.074 1051.1 637.193C1051.34 637.312 1051.6 637.374 1051.87 637.374H1105.75C1106.03 637.374 1106.31 637.307 1106.55 637.179C1106.8 637.051 1107.02 636.865 1107.18 636.637C1107.34 636.41 1107.45 636.146 1107.49 635.87C1107.53 635.593 1107.5 635.311 1107.41 635.047L1103.77 624.524C1103.65 624.18 1103.42 623.881 1103.13 623.669C1102.83 623.458 1102.47 623.344 1102.11 623.344H1054.71Z" fill="#CCCCCC"/>
         <path d="M826.792 690.204H831.015L822.57 125.787H818.347L818.516 137.048H723.875L724.043 125.787H719.821L711.375 690.204H715.598L716.146 653.608H826.245L826.792 690.204ZM820.706 283.43H721.685L722.717 214.461H819.674L820.706 283.43ZM820.769 287.653L821.801 356.621H720.589L721.621 287.653H820.769ZM821.864 360.844L822.896 429.812H719.494L720.526 360.844H821.864ZM822.959 434.035L823.991 503.003H718.399L719.431 434.035H822.959ZM824.055 507.226L825.087 576.195H717.304L718.336 507.226H824.055ZM818.579 141.27L819.611 210.239H722.78L723.812 141.27H818.579ZM716.209 649.386L717.241 580.417H825.15L826.182 649.386H716.209Z" fill="#3F3D56"/>
         <path d="M750.277 320.191C788.304 320.191 819.131 289.364 819.131 251.337C819.131 213.31 788.304 182.483 750.277 182.483C712.25 182.483 681.424 213.31 681.424 251.337C681.424 289.364 712.25 320.191 750.277 320.191Z" fill="#2F2E41"/>
         <path d="M790.778 298.921L770.195 302.647L776.871 339.525L797.454 335.799L790.778 298.921Z" fill="#2F2E41"/>
         <path d="M749.612 306.373L729.029 310.099L735.705 346.977L756.288 343.251L749.612 306.373Z" fill="#2F2E41"/>
         <path d="M746.631 354.738C753.978 348.517 758.042 341.24 755.709 338.485C753.375 335.73 745.529 338.54 738.182 344.762C730.836 350.983 726.772 358.26 729.105 361.015C731.438 363.77 739.285 360.96 746.631 354.738Z" fill="#2F2E41"/>
         <path d="M786.94 347.441C794.286 341.219 798.35 333.942 796.017 331.187C793.684 328.433 785.837 331.243 778.491 337.465C771.144 343.686 767.08 350.963 769.413 353.718C771.746 356.473 779.593 353.663 786.94 347.441Z" fill="#2F2E41"/>
         <path d="M745.457 258.027C758.454 258.027 768.989 247.492 768.989 234.495C768.989 221.499 758.454 210.963 745.457 210.963C732.46 210.963 721.925 221.499 721.925 234.495C721.925 247.492 732.46 258.027 745.457 258.027Z" fill="white"/>
         <path d="M735.785 233.904C740.117 233.904 743.629 230.392 743.629 226.06C743.629 221.728 740.117 218.216 735.785 218.216C731.453 218.216 727.941 221.728 727.941 226.06C727.941 230.392 731.453 233.904 735.785 233.904Z" fill="#3F3D56"/>
         <path d="M804.593 176.432C805.629 150.941 783.66 129.35 755.524 128.207C727.388 127.064 703.74 146.802 702.704 172.293C701.669 197.784 721.227 203.575 749.363 204.718C777.499 205.861 803.558 201.922 804.593 176.432Z" fill="#29C7AC"/>
         <path d="M720.257 246.485C721.591 240.667 707.648 232.507 689.115 228.259C670.582 224.011 654.477 225.283 653.144 231.101C651.81 236.919 665.753 245.08 684.286 249.328C702.818 253.576 718.923 252.303 720.257 246.485Z" fill="#2F2E41"/>
         <path d="M855.414 268.961C856.748 263.143 842.805 254.983 824.273 250.735C805.74 246.487 789.635 247.76 788.301 253.578C786.968 259.396 800.91 267.556 819.443 271.804C837.976 276.052 854.081 274.779 855.414 268.961Z" fill="#2F2E41"/>
         <path d="M769.188 278.472C769.559 280.499 769.527 282.58 769.093 284.595C768.659 286.611 767.833 288.521 766.66 290.216C765.488 291.912 763.993 293.36 762.261 294.477C760.529 295.595 758.594 296.36 756.566 296.729C754.538 297.098 752.457 297.064 750.442 296.629C748.427 296.193 746.518 295.365 744.823 294.191C743.129 293.018 741.682 291.522 740.566 289.789C739.45 288.055 738.686 286.119 738.319 284.091L738.313 284.061C736.77 275.535 743.362 272.518 751.888 270.975C760.414 269.431 767.645 269.946 769.188 278.472Z" fill="white"/>
         <g clip-path="url(#clip2)">
            <path d="M592.213 377.091C587.371 366.874 582.65 360.435 577.59 355.263C572.291 349.742 565.918 345.483 558.755 342.726C551.677 339.844 544.013 338.514 536.36 338.846C528.997 339.101 521.042 340.461 510.251 344.454C499.365 348.44 495.928 349.749 468.848 361.124C441.769 372.498 438.427 374.037 427.983 378.964C417.578 383.875 411 388.621 405.701 393.683C400.044 398.987 395.652 405.336 392.771 412.447C389.765 419.475 388.323 427.062 388.562 434.618C388.729 441.89 390.006 449.731 393.912 460.34C397.812 471.044 399.094 474.424 410.271 501.033C421.448 527.641 422.964 530.923 427.821 541.179C432.663 551.396 437.385 557.834 442.446 563.007C447.744 568.528 454.155 572.77 461.279 575.544C468.357 578.426 476.021 579.757 483.674 579.424C491.038 579.168 498.992 577.809 509.784 573.816C520.613 569.809 524.052 568.498 551.132 557.124C578.211 545.749 581.553 544.212 591.997 539.283C602.402 534.372 608.98 529.628 614.279 524.564C625.544 513.842 631.767 498.977 631.418 483.63C631.25 476.359 629.974 468.517 626.067 457.907C622.144 447.258 620.862 443.879 609.686 417.27C598.509 390.661 597.07 387.348 592.213 377.091ZM607.862 464.653C611.453 474.405 611.988 480.261 612.072 484.279C612.307 494.225 608.257 503.898 600.951 510.841C598.007 513.654 593.384 517.487 583.858 521.983C573.531 526.862 570.424 528.301 543.812 539.48C517.199 550.658 513.957 551.886 503.281 555.828C493.364 559.5 487.429 560.101 483.359 560.234C478.376 560.48 473.394 559.645 468.833 557.733C464.186 555.946 460.045 553.181 456.662 549.603C453.851 546.731 450.028 542.21 445.596 532.857C440.785 522.717 439.367 519.664 428.383 493.515C417.399 467.365 416.196 464.177 412.339 453.682C408.746 443.931 408.212 438.075 408.128 434.057C407.941 429.135 408.849 424.205 410.882 419.657C412.748 415.045 415.599 410.92 419.265 407.534C422.209 404.721 426.833 400.887 436.357 396.391C446.685 391.513 449.793 390.071 476.404 378.894C503.055 367.699 506.259 366.489 516.934 362.545C526.852 358.875 532.787 358.273 536.857 358.141C541.84 357.893 546.821 358.728 551.383 360.641C556.029 362.428 560.17 365.192 563.554 368.771C566.365 371.644 570.187 376.163 574.621 385.517C579.431 395.658 580.85 398.709 591.834 424.858C602.818 451.008 603.987 454.12 607.862 464.653Z" fill="#E94560"/>
            <path d="M488.87 408.789C460.583 420.671 447.105 452.861 458.78 480.657C470.456 508.453 502.878 521.362 531.164 509.481C559.452 497.599 572.929 465.409 561.254 437.613C549.578 409.817 517.158 396.907 488.87 408.789ZM523.735 491.793C505.384 499.501 484.356 491.129 476.781 473.096C469.206 455.062 477.948 434.185 496.299 426.477C514.652 418.768 535.678 427.141 543.253 445.174C550.828 463.208 542.087 484.084 523.735 491.793V491.793Z" fill="#E94560"/>
            <path d="M553.259 379.401C555.985 385.892 552.84 393.404 546.233 396.18C539.628 398.954 532.061 395.941 529.335 389.451C526.608 382.958 529.754 375.447 536.359 372.673C542.966 369.898 550.532 372.909 553.259 379.401V379.401Z" fill="#E94560"/>
         </g>
         <path d="M617.045 542.44C624.004 524.234 625.012 507.704 619.296 505.519C613.581 503.335 603.306 516.323 596.347 534.529C589.388 552.736 588.381 569.266 594.096 571.45C599.812 573.635 610.086 560.647 617.045 542.44Z" fill="#2F2E41"/>
         <path d="M611.128 603.091C617.372 564.613 591.241 528.358 552.763 522.114C514.284 515.869 478.029 542 471.785 580.479C465.541 618.957 491.672 655.212 530.15 661.457C568.629 667.701 604.884 641.57 611.128 603.091Z" fill="#2F2E41"/>
         <path d="M530.735 647.179H509.292V685.598H530.735V647.179Z" fill="#2F2E41"/>
         <path d="M573.621 647.179H552.178V685.598H573.621V647.179Z" fill="#2F2E41"/>
         <path d="M527.161 692.745C537.03 692.745 545.03 689.745 545.03 686.044C545.03 682.344 537.03 679.343 527.161 679.343C517.292 679.343 509.292 682.344 509.292 686.044C509.292 689.745 517.292 692.745 527.161 692.745Z" fill="#2F2E41"/>
         <path d="M570.047 691.852C579.916 691.852 587.916 688.852 587.916 685.151C587.916 681.45 579.916 678.45 570.047 678.45C560.178 678.45 552.178 681.45 552.178 685.151C552.178 688.852 560.178 691.852 570.047 691.852Z" fill="#2F2E41"/>
         <path d="M479.527 536.643C474.233 512.933 491.157 488.974 517.327 483.13C543.498 477.287 569.006 491.771 574.3 515.481C579.595 539.191 562.25 547.936 536.079 553.78C509.908 559.624 484.821 560.354 479.527 536.643Z" fill="#29C7AC"/>
         <path d="M493.843 574.158C496.465 568.629 484.315 557.376 466.704 549.024C449.094 540.672 432.692 538.382 430.07 543.911C427.448 549.439 439.598 560.692 457.209 569.044C474.819 577.397 491.221 579.686 493.843 574.158Z" fill="#2F2E41"/>
         <path d="M135.866 676.586C174.848 676.586 206.449 644.985 206.449 606.003C206.449 567.021 174.848 535.42 135.866 535.42C96.8839 535.42 65.2829 567.021 65.2829 606.003C65.2829 644.985 96.8839 676.586 135.866 676.586Z" fill="#2F2E41"/>
         <path d="M125.144 661.398H103.701V699.816H125.144V661.398Z" fill="#2F2E41"/>
         <path d="M168.03 661.398H146.587V699.816H168.03V661.398Z" fill="#2F2E41"/>
         <path d="M121.57 706.964C131.439 706.964 139.44 703.964 139.44 700.263C139.44 696.562 131.439 693.562 121.57 693.562C111.702 693.562 103.701 696.562 103.701 700.263C103.701 703.964 111.702 706.964 121.57 706.964Z" fill="#2F2E41"/>
         <path d="M164.456 706.07C174.325 706.07 182.325 703.07 182.325 699.369C182.325 695.668 174.325 692.668 164.456 692.668C154.587 692.668 146.587 695.668 146.587 699.369C146.587 703.07 154.587 706.07 164.456 706.07Z" fill="#2F2E41"/>
         <path d="M137.653 612.258C150.976 612.258 161.776 601.457 161.776 588.134C161.776 574.811 150.976 564.011 137.653 564.011C124.33 564.011 113.529 574.811 113.529 588.134C113.529 601.457 124.33 612.258 137.653 612.258Z" fill="white"/>
         <path d="M137.653 596.175C142.094 596.175 145.694 592.575 145.694 588.134C145.694 583.693 142.094 580.093 137.653 580.093C133.212 580.093 129.612 583.693 129.612 588.134C129.612 592.575 133.212 596.175 137.653 596.175Z" fill="#3F3D56"/>
         <path d="M67.398 540.363C61.6987 514.84 79.917 489.049 108.089 482.758C136.262 476.467 163.721 492.059 169.42 517.583C175.119 543.107 156.448 552.52 128.275 558.811C100.103 565.102 73.0973 565.887 67.398 540.363Z" fill="#E6E6E6"/>
         <path d="M187.331 353.845C194.29 335.638 195.298 319.108 189.582 316.924C183.867 314.739 173.592 327.727 166.633 345.934C159.675 364.14 158.667 380.67 164.382 382.855C170.098 385.039 180.372 372.051 187.331 353.845Z" fill="#2F2E41"/>
         <path d="M181.414 414.496C187.658 376.017 161.527 339.762 123.049 333.518C84.5702 327.274 48.3152 353.405 42.071 391.883C35.8268 430.362 61.9579 466.617 100.436 472.861C138.915 479.105 175.17 452.974 181.414 414.496Z" fill="#2F2E41"/>
         <path d="M101.021 458.583H79.5781V497.002H101.021V458.583Z" fill="#2F2E41"/>
         <path d="M143.907 458.583H122.464V497.002H143.907V458.583Z" fill="#2F2E41"/>
         <path d="M97.4472 504.15C107.316 504.15 115.316 501.15 115.316 497.449C115.316 493.748 107.316 490.748 97.4472 490.748C87.5784 490.748 79.5781 493.748 79.5781 497.449C79.5781 501.15 87.5784 504.15 97.4472 504.15Z" fill="#2F2E41"/>
         <path d="M140.333 503.256C150.202 503.256 158.202 500.256 158.202 496.555C158.202 492.855 150.202 489.854 140.333 489.854C130.464 489.854 122.464 492.855 122.464 496.555C122.464 500.256 130.464 503.256 140.333 503.256Z" fill="#2F2E41"/>
         <path d="M113.529 409.444C126.852 409.444 137.653 398.643 137.653 385.32C137.653 371.997 126.852 361.197 113.529 361.197C100.206 361.197 89.4061 371.997 89.4061 385.32C89.4061 398.643 100.206 409.444 113.529 409.444Z" fill="white"/>
         <path d="M113.529 393.361C117.97 393.361 121.57 389.761 121.57 385.32C121.57 380.879 117.97 377.279 113.529 377.279C109.088 377.279 105.488 380.879 105.488 385.32C105.488 389.761 109.088 393.361 113.529 393.361Z" fill="#3F3D56"/>
         <path d="M43.2747 337.549C37.5755 312.025 55.7937 286.235 83.9663 279.944C112.139 273.653 139.597 289.245 145.297 314.769C150.996 340.292 132.325 349.706 104.152 355.997C75.9798 362.287 48.974 363.073 43.2747 337.549Z" fill="#29C7AC"/>
         <path d="M64.1295 385.562C66.7516 380.034 54.601 368.781 36.9904 360.428C19.3798 352.076 2.97793 349.787 0.355853 355.315C-2.26623 360.844 9.88439 372.096 27.495 380.449C45.1056 388.801 61.5074 391.091 64.1295 385.562Z" fill="#2F2E41"/>
         <path d="M77.0724 428.653C77.0724 435.561 94.8598 449.202 114.597 449.202C134.335 449.202 152.841 429.753 152.841 422.845C152.841 415.937 134.335 424.185 114.597 424.185C94.8599 424.185 77.0724 421.745 77.0724 428.653Z" fill="white"/>
         <path d="M181.137 133.683C179.833 133.684 178.584 134.202 177.662 135.124C176.74 136.046 176.222 137.296 176.22 138.599V341.822C176.222 343.126 176.74 344.376 177.662 345.297C178.584 346.219 179.833 346.738 181.137 346.739H651.5C652.804 346.738 654.053 346.219 654.975 345.297C655.897 344.376 656.415 343.126 656.417 341.822V138.599C656.415 137.296 655.897 136.046 654.975 135.124C654.053 134.202 652.804 133.684 651.5 133.683H181.137Z" fill="#29C7AC"/>
         <path d="M308.142 287.937C334.501 287.937 355.869 266.569 355.869 240.211C355.869 213.852 334.501 192.484 308.142 192.484C281.784 192.484 260.416 213.852 260.416 240.211C260.416 266.569 281.784 287.937 308.142 287.937Z" fill="white"/>
         <path d="M415.859 233.861C414.395 233.885 412.999 234.483 411.972 235.527C410.946 236.571 410.37 237.977 410.37 239.441C410.37 240.905 410.946 242.311 411.972 243.355C412.999 244.399 414.395 244.997 415.859 245.021H566.549C567.282 245.034 568.01 244.902 568.692 244.633C569.375 244.364 569.997 243.963 570.524 243.453C571.051 242.944 571.473 242.335 571.765 241.662C572.056 240.99 572.213 240.266 572.225 239.533C572.237 238.8 572.104 238.071 571.835 237.389C571.565 236.707 571.164 236.085 570.654 235.559C570.144 235.032 569.535 234.611 568.862 234.319C568.189 234.028 567.465 233.872 566.732 233.861C566.671 233.86 566.61 233.86 566.549 233.861H415.859Z" fill="white"/>
         <path d="M415.859 201.53C414.395 201.554 412.999 202.153 411.972 203.196C410.946 204.24 410.37 205.646 410.37 207.11C410.37 208.574 410.946 209.98 411.972 211.024C412.999 212.068 414.395 212.666 415.859 212.69H491.11C491.843 212.703 492.572 212.571 493.254 212.302C493.936 212.033 494.559 211.632 495.086 211.122C495.613 210.613 496.034 210.004 496.326 209.331C496.618 208.659 496.775 207.935 496.787 207.202C496.799 206.469 496.666 205.74 496.396 205.058C496.127 204.376 495.726 203.754 495.215 203.228C494.705 202.701 494.096 202.28 493.423 201.989C492.75 201.697 492.027 201.541 491.293 201.53C491.232 201.529 491.171 201.529 491.11 201.53H415.859Z" fill="white"/>
         <path d="M415.859 267.731C414.395 267.755 412.999 268.354 411.972 269.398C410.946 270.442 410.37 271.847 410.37 273.311C410.37 274.776 410.946 276.181 411.972 277.225C412.999 278.269 414.395 278.868 415.859 278.892H566.549C567.282 278.904 568.01 278.772 568.692 278.503C569.375 278.234 569.997 277.833 570.524 277.324C571.051 276.814 571.473 276.205 571.765 275.533C572.056 274.86 572.213 274.136 572.225 273.403C572.237 272.67 572.104 271.942 571.835 271.26C571.565 270.578 571.164 269.956 570.654 269.429C570.144 268.902 569.535 268.481 568.862 268.19C568.189 267.899 567.465 267.743 566.732 267.731C566.671 267.73 566.61 267.73 566.549 267.731H415.859Z" fill="white"/>
         <path d="M1147.7 643.635C1153.42 641.45 1152.41 624.92 1145.45 606.714C1138.49 588.507 1128.22 575.519 1122.5 577.704C1116.79 579.888 1117.8 596.418 1124.75 614.625C1131.71 632.831 1141.99 645.819 1147.7 643.635Z" fill="#2F2E41"/>
         <path d="M1196.9 748.391C1235.38 742.147 1261.51 705.892 1255.26 667.413C1249.02 628.935 1212.77 602.804 1174.29 609.048C1135.81 615.292 1109.68 651.547 1115.92 690.026C1122.17 728.504 1158.42 754.635 1196.9 748.391Z" fill="#2F2E41"/>
         <path d="M1217.76 734.114H1196.32L1200.51 780.123L1217.79 775.427L1217.76 734.114Z" fill="#2F2E41"/>
         <path d="M1171.01 734.234H1149.57L1153.76 780.242L1170.27 775.427L1171.01 734.234Z" fill="#2F2E41"/>
         <path d="M1153.15 782.404C1163 781.684 1170.76 778.109 1170.49 774.418C1170.22 770.727 1162.02 768.318 1152.18 769.038C1142.33 769.757 1134.57 773.333 1134.84 777.024C1135.11 780.715 1143.31 783.124 1153.15 782.404Z" fill="#2F2E41"/>
         <path d="M1183.81 684.974C1197.13 684.974 1207.93 674.173 1207.93 660.85C1207.93 647.527 1197.13 636.727 1183.81 636.727C1170.48 636.727 1159.68 647.527 1159.68 660.85C1159.68 674.173 1170.48 684.974 1183.81 684.974Z" fill="white"/>
         <path d="M1183.81 668.891C1188.25 668.891 1191.85 665.291 1191.85 660.85C1191.85 656.409 1188.25 652.809 1183.81 652.809C1179.37 652.809 1175.77 656.409 1175.77 660.85C1175.77 665.291 1179.37 668.891 1183.81 668.891Z" fill="#3F3D56"/>
         <path d="M1269.09 636.162C1280.67 620.484 1286.07 604.828 1281.14 601.192C1276.22 597.557 1262.84 607.319 1251.26 622.997C1239.68 638.675 1234.29 654.332 1239.21 657.967C1244.13 661.603 1257.51 651.84 1269.09 636.162Z" fill="#2F2E41"/>
         <path d="M1151.16 715.114C1151.16 709.42 1165.82 698.177 1182.08 698.177C1198.35 698.177 1213.6 714.206 1213.6 719.9C1213.6 725.593 1198.35 718.795 1182.08 718.795C1165.82 718.795 1151.16 720.807 1151.16 715.114Z" fill="white"/>
         <g clip-path="url(#clip3)">
            <path d="M1019.21 326.791C1089.57 336.68 1154.62 287.657 1164.51 217.295C1174.4 146.933 1125.38 81.8773 1055.02 71.9886C984.655 62.0999 919.599 111.123 909.71 181.485C899.821 251.847 948.844 316.903 1019.21 326.791Z" fill="#E94560"/>
            <path d="M1068.44 208.879L1045.71 205.684L1034 288.967L999.558 284.127L1011.26 200.843L994.882 198.541L998.995 169.271L1015.38 171.574L1018.04 152.633C1019.94 139.089 1029.36 118.783 1057.67 122.763L1083.17 126.455L1079.18 154.866L1060.67 152.265C1057.63 151.838 1053.15 152.755 1052.24 159.216L1049.82 176.442L1075.56 180.059L1068.44 208.879Z" fill="white"/>
         </g>
         <path d="M1383.52 620.39L997.155 566.83C994.143 566.408 991.421 564.809 989.586 562.384C987.751 559.958 986.953 556.904 987.367 553.891L1030.8 240.58C1031.22 237.568 1032.82 234.846 1035.25 233.011C1037.67 231.176 1040.73 230.378 1043.74 230.792L1430.1 284.353C1433.11 284.774 1435.84 286.373 1437.67 288.798C1439.51 291.224 1440.3 294.278 1439.89 297.292L1396.46 610.602C1396.04 613.614 1394.44 616.337 1392.01 618.172C1389.59 620.006 1386.53 620.804 1383.52 620.39V620.39Z" fill="#29C7AC"/>
         <path d="M1245.11 522.61L1047.86 495.266C1047.61 495.235 1047.37 495.181 1047.13 495.106L1162.82 346.447C1163.53 345.52 1164.47 344.797 1165.55 344.353C1166.63 343.909 1167.81 343.76 1168.96 343.92C1170.12 344.08 1171.21 344.545 1172.13 345.266C1173.05 345.987 1173.76 346.938 1174.19 348.024L1221.77 465.143L1224.05 470.748L1245.11 522.61Z" fill="white"/>
         <path opacity="0.2" d="M1245.11 522.609L1177.76 513.274L1217.48 469.837L1220.34 466.708L1221.77 465.143L1224.05 470.748L1245.11 522.609Z" fill="black"/>
         <path d="M1354.93 537.836L1184.33 514.185L1224.05 470.748L1226.9 467.618L1278.66 411.011C1279.55 410.16 1280.62 409.507 1281.78 409.094C1282.94 408.682 1284.18 408.518 1285.41 408.614C1286.64 408.71 1287.84 409.064 1288.92 409.653C1290.01 410.242 1290.95 411.052 1291.71 412.031C1291.89 412.306 1292.07 412.593 1292.22 412.89L1354.93 537.836Z" fill="white"/>
         <path d="M1247.5 396.914C1263.8 396.914 1277 383.706 1277 367.413C1277 351.121 1263.8 337.913 1247.5 337.913C1231.21 337.913 1218 351.121 1218 367.413C1218 383.706 1231.21 396.914 1247.5 396.914Z" fill="white"/>
         <path d="M1086.04 259.828L1050.33 254.877L1045.38 290.591L1081.09 295.542L1086.04 259.828Z" fill="#3F3D56"/>
         <path d="M1254.06 613.079C1259.76 587.555 1241.54 561.765 1213.37 555.474C1185.2 549.183 1157.74 564.775 1152.04 590.299C1146.34 615.822 1165.01 625.236 1193.18 631.527C1221.36 637.817 1248.36 638.603 1254.06 613.079Z" fill="#F2F2F2"/>
         <path d="M1200.18 782.29C1210.02 781.571 1217.78 777.995 1217.51 774.304C1217.24 770.613 1209.04 768.205 1199.2 768.924C1189.36 769.644 1181.6 773.219 1181.87 776.91C1182.14 780.601 1190.34 783.01 1200.18 782.29Z" fill="#2F2E41"/>
      </g>
   </g>
   <defs>
      <clipPath id="clip0">
         <rect width="1440" height="905.02" fill="white"/>
      </clipPath>
      <clipPath id="clip1">
         <rect width="1440" height="905.022" fill="white"/>
      </clipPath>
      <clipPath id="clip2">
         <rect width="216.334" height="212.572" fill="white" transform="translate(368.752 403.168) rotate(-22.7845)"/>
      </clipPath>
      <clipPath id="clip3">
         <rect width="257.307" height="257.307" fill="white" transform="translate(927.615 54.0836) rotate(8)"/>
      </clipPath>
   </defs>
</svg>