<?xml version="1.0" encoding="utf-8"?>
<!-- Generator: Adobe Illustrator 24.1.2, SVG Export Plug-In . SVG Version: 6.00 Build 0)  -->
<svg version="1.1" id="Capa_1" xmlns="http://www.w3.org/2000/svg" xmlns:xlink="http://www.w3.org/1999/xlink" x="0px" y="0px"
	 viewBox="0 0 463 463" style="enable-background:new 0 0 463 463;" xml:space="preserve">
<style type="text/css">
	.st0{fill:#29C7AC;}
	.st1{fill:#0F4C75;}
</style>
<circle class="st0" cx="272" cy="31.5" r="9.3"/>
<circle class="st0" cx="231.5" cy="231.5" r="45.9"/>
<g>
	<path class="st1" d="M232,176c-30.6,0-55.5,24.9-55.5,55.5S201.4,287,232,287s55.5-24.9,55.5-55.5S262.6,176,232,176z M232,272
		c-22.3,0-40.5-18.2-40.5-40.5S209.7,191,232,191s40.5,18.2,40.5,40.5S254.4,272,232,272z"/>
	<path class="st1" d="M232,208c-4.1,0-7.5,3.4-7.5,7.5s3.4,7.5,7.5,7.5c4.7,0,8.5,3.8,8.5,8.5c0,4.1,3.4,7.5,7.5,7.5
		s7.5-3.4,7.5-7.5C255.5,218.5,245,208,232,208z"/>
	<path class="st1" d="M388.1,231.5c6.6-6.9,12.6-13.8,18.1-20.6c30.4-38.1,39.7-71.9,26.3-95.1c-13.4-23.2-47.3-32-95.5-24.8
		c-8.7,1.3-17.7,3.1-27,5.4c-5.5-18.9-12.1-35.8-19.8-50c3.3-4.1,5.4-9.3,5.4-14.9C295.5,18.5,285,8,272,8c-3.9,0-7.5,0.9-10.7,2.6
		C252,3.6,242.1,0,232,0c-26.8,0-51.4,25-69.2,70.4c-3.2,8.2-6.2,16.9-8.8,26c-9.2-2.3-18.2-4.1-26.9-5.4
		c-48.2-7.2-82.1,1.5-95.5,24.8c-13.4,23.2-4,57,26.3,95.1c5.5,6.9,11.6,13.8,18.2,20.7c-8.1,8.5-15.4,16.9-21.8,25.3
		c-2-0.5-4.1-0.8-6.2-0.8c-13,0-23.5,10.5-23.5,23.5c0,6.4,2.6,12.3,6.8,16.5c-7.7,20-7.7,37.6,0.2,51.2
		c10.3,17.9,32.9,27.2,64.8,27.2c9.5,0,19.7-0.8,30.8-2.5c8.7-1.3,17.7-3.1,26.9-5.4c2.7,9.1,5.6,17.8,8.8,26
		C180.6,438,205.2,463,232,463s51.4-25,69.2-70.4c3.2-8.2,6.2-16.9,8.8-26c12.2,3,24,5.2,35.1,6.5C347.7,383.4,357,391,368,391
		c11.2,0,20.7-7.9,23-18.5c19.7-3.6,34-12.3,41.5-25.3c13.4-23.2,4-57-26.3-95.1C400.7,245.3,394.6,238.4,388.1,231.5z M339.2,105.8
		c41.1-6.2,70.4,0.2,80.3,17.4c10,17.2,0.8,45.8-25.1,78.3c-5.1,6.5-10.8,12.9-17,19.4c-15.4-14.8-33.1-29.3-52.5-43.1
		c-2.3-23.7-6-46.3-11.1-66.9C322.6,108.8,331,107.1,339.2,105.8z M272.3,301.2c-13.4,7.7-26.8,14.8-40.2,21.1
		c-13.4-6.3-26.9-13.4-40.3-21.1c-13.4-7.7-26.2-15.9-38.4-24.3c-1.2-14.8-1.8-30-1.8-45.4c0-15.4,0.6-30.6,1.8-45.4
		c12.2-8.5,25.1-16.6,38.4-24.3c13.4-7.7,26.9-14.8,40.3-21.1c13.4,6.3,26.9,13.4,40.3,21.1c13.4,7.7,26.2,15.9,38.4,24.3
		c1.2,14.8,1.9,30,1.9,45.4c0,15.5-0.6,30.7-1.8,45.4C298.5,285.3,285.7,293.5,272.3,301.2z M308.8,296.3
		c-2.2,18.3-5.3,35.7-9.3,51.9c-16-4.7-32.7-10.7-49.6-17.9c10-5,20-10.4,29.9-16.1C289.7,308.5,299.4,302.5,308.8,296.3z
		 M214.3,330.3c-16.9,7.2-33.6,13.3-49.7,17.9c-4-16.2-7.1-33.7-9.3-51.9c9.3,6.2,19,12.1,29,17.9
		C194.2,319.9,204.2,325.3,214.3,330.3z M137.5,265.5c-14.7-11-28.2-22.4-40.3-34c12-11.5,25.6-23,40.3-34c-0.7,11.1-1,22.5-1,34
		C136.5,243,136.9,254.4,137.5,265.5z M155.3,166.7c2.2-18.3,5.3-35.7,9.3-52c16,4.7,32.7,10.7,49.6,17.9c-10,5-20,10.4-30,16.2
		C174.3,154.5,164.7,160.5,155.3,166.7z M249.8,132.6c16.9-7.2,33.6-13.2,49.6-17.9c4,16.2,7.1,33.6,9.3,51.9
		c-9.3-6.1-19-12.1-28.9-17.8C269.8,143,259.8,137.7,249.8,132.6z M326.5,197.4c14.7,11,28.3,22.5,40.4,34.1
		c-12.1,11.6-25.6,23-40.3,34c0.7-11.2,1-22.5,1-34C327.5,220,327.2,208.6,326.5,197.4z M280.5,31.5c0,4.7-3.8,8.5-8.5,8.5
		s-8.5-3.8-8.5-8.5s3.8-8.5,8.5-8.5S280.5,26.8,280.5,31.5z M176.8,75.9C192,37.2,212.1,15,232,15c6.2,0,12.5,2.2,18.8,6.5
		c-1.4,3-2.3,6.4-2.3,10c0,13,10.5,23.5,23.5,23.5c1.9,0,3.7-0.2,5.4-0.6c7,13,13.1,28.5,18.1,45.9c-20.5,5.9-41.9,14-63.5,23.9
		c-21.6-9.9-43.1-17.9-63.5-23.9C171,91.7,173.8,83.5,176.8,75.9z M44.5,123.3c10-17.2,39.2-23.6,80.3-17.4c8.2,1.2,16.6,2.9,25.3,5
		c-5.1,20.7-8.8,43.3-11.1,67c-19.3,13.8-37,28.3-52.4,43.1c-6.2-6.5-11.9-13-17-19.4C43.7,169,34.6,140.5,44.5,123.3z M48,271
		c4.7,0,8.5,3.8,8.5,8.5S52.7,288,48,288s-8.5-3.8-8.5-8.5S43.3,271,48,271z M124.9,357.2c-41.1,6.2-70.4-0.2-80.3-17.4
		c-6.5-11.3-3.9-25.6,0.3-37c1,0.1,2.1,0.2,3.2,0.2c13,0,23.5-10.5,23.5-23.5c0-5.3-1.8-10.3-4.8-14.2c5.8-7.7,12.5-15.4,19.9-23.1
		c15.4,14.8,33,29.3,52.4,43c2.2,23.7,6,46.3,11.1,67C141.5,354.3,133,355.9,124.9,357.2z M287.3,387.1
		C272.1,425.8,251.9,448,232,448c-19.9,0-40.1-22.2-55.2-60.9c-3-7.7-5.8-15.8-8.3-24.4c20.5-5.9,41.9-14,63.6-23.9
		c21.6,9.9,43.1,17.9,63.5,23.8C293.1,371.3,290.3,379.5,287.3,387.1z M368,376c-4.7,0-8.5-3.8-8.5-8.5s3.8-8.5,8.5-8.5
		s8.5,3.8,8.5,8.5S372.7,376,368,376z M419.5,339.8c-5.2,9-15.3,14.9-30.2,17.8c-3.8-8-11.9-13.6-21.3-13.6
		c-9.6,0-17.9,5.8-21.5,14.1c-10.3-1.2-21.2-3.2-32.5-6c5.1-20.7,8.8-43.2,11.1-66.9c19.4-13.8,37.1-28.3,52.4-43.1
		c6.2,6.4,11.8,12.9,17,19.4C420.3,294,429.5,322.5,419.5,339.8z"/>
</g>
<circle class="st0" cx="368" cy="367.5" r="9.3"/>
<circle class="st0" cx="48" cy="279.5" r="9.3"/>
</svg>
