<?xml version="1.0" encoding="utf-8"?>
<!-- Generator: Adobe Illustrator 24.1.2, SVG Export Plug-In . SVG Version: 6.00 Build 0)  -->
<svg version="1.1" id="Capa_1" xmlns="http://www.w3.org/2000/svg" xmlns:xlink="http://www.w3.org/1999/xlink" x="0px" y="0px"
	 viewBox="0 0 417 417" style="enable-background:new 0 0 417 417;" xml:space="preserve">
<style type="text/css">
	.st0{fill:#3E5C68;}
</style>
<g>
	<g>
		<path class="st0" d="M412.4,95.2c-6.3-6.3-16.4-6.2-22.6,0c-3.7,3.7-8.3,6.4-14.3,8.4l-62-62c2-5.9,4.7-10.4,8.4-14.2
			c6.2-6.2,6.3-16.4,0-22.6s-16.4-6.3-22.6,0c-16.6,16.6-21.5,37.2-22.4,75.4c-0.1,4.3,1.5,8.5,4.5,11.6c3,3.1,7.1,4.8,11.5,4.8h1.5
			c8,0,14.4-6.4,14.5-14.4l26,26c-7.7,0.1-16.1,0.2-26.1,0.1l-32-0.4c-39.6-0.6-98.6-4.4-136,33c-24.6,24.6-31.8,61.3-33.3,99.2
			c-0.2,4.3,1.4,8.5,4.4,11.6c3,3.1,7.1,4.9,11.4,4.9h0.3c8.6,0,15.5-6.8,15.8-15.3c0.2-7.3,0.7-14.5,1.5-21.4
			c6.8,6.8,17.3,17.4,28.1,28.1c10.1,10.1,20.4,20.4,28.2,28.2c-19.4,2.1-39.7,1.3-57.5,1.1l-32-0.4c-63.6-0.6-82.5,1.8-103.1,22.5
			c-6.3,6.3-6.3,16.4,0,22.6c6.3,6.3,16.4,6.3,22.6,0c4.1-4.1,8.3-7,14.4-9l62,62c-2,6-4.7,11.1-8.5,14.9c-6.3,6.2-6.3,16.4,0,22.6
			c6.3,6.3,16.4,6.2,22.6,0c17.1-17.1,21.9-44.6,22.8-75.5c0.1-4.3-1.5-8.4-4.5-11.5s-7.1-4.8-11.4-4.8H123
			c-7.8,0-14.2,6.3-14.3,14.1l-25.9-25.9c7.4-0.1,15.7-0.1,25.5,0l32,0.4c39.8,0.6,98.7,4.4,136-32.9
			c26.1-26.1,32.5-71.2,33.2-108.1c0.2-9-7-16.4-16-16.4c-8.7,0-15.8,6.9-15.9,15.6c-0.1,6.7-0.4,21.6-1.3,29.4
			c-16.6-16.6-36.2-36.2-55.9-55.9c19.2-2,39.3-1.3,56.7-1l32,0.4c56,0.5,82.7-2,103.2-22.5C418.6,111.6,418.6,101.4,412.4,95.2z
			 M267.3,233c-3.6,8.1-8.1,15.1-13.7,20.7c-5.8,5.8-12.7,10-20.2,13.3L150,183.5c3.4-7.6,7.7-14.4,13.4-20.1
			c5.9-5.9,13.1-10.2,20.8-13.6C211.9,177.6,244,209.7,267.3,233z"/>
	</g>
</g>
</svg>
